<svg width="320" height="967" viewBox="0 0 320 967" fill="none" xmlns="http://www.w3.org/2000/svg">
<g opacity="0.3">
<path d="M-23.2858 741.84C-26.7836 740.54 -29.9836 738.708 -32.8476 736.362C-38.8532 731.44 -43.4353 724.217 -46.4663 714.893C-49.7251 704.874 -51.2213 692.316 -50.9155 677.569C-50.2997 647.929 -43.36 614.739 -36.6487 582.641C-35.3314 576.338 -33.9689 569.821 -32.6865 563.482C-23.9523 520.28 -18.6738 481.555 -16.5481 445.095C-12.3079 372.364 -19.4271 306.299 -37.1378 254.044C-57.6209 193.613 -89.3471 155.506 -126.474 146.743C-148.296 141.594 -184.861 156.201 -212.528 194.082C-228.948 216.565 -239.64 244.314 -243.446 274.327L-243.611 274.398C-241.614 258.658 -237.77 243.564 -232.182 229.536C-227.057 216.667 -220.466 204.675 -212.592 193.894C-200.069 176.746 -184.712 163.131 -168.183 154.52C-152.909 146.563 -138.064 143.7 -126.38 146.458C-106.951 151.046 -89.045 163.559 -73.1602 183.653C-58.7613 201.87 -46.5881 225.479 -36.9799 253.827C-19.2583 306.112 -12.1339 372.213 -16.3773 444.988C-18.5057 481.472 -23.7872 520.218 -32.5254 563.444C-33.8065 569.783 -35.1699 576.303 -36.4886 582.605C-43.1959 614.68 -50.1303 647.846 -50.7441 677.443C-51.339 706.07 -45.275 725.801 -32.7218 736.086C-15.3381 750.33 13.9607 744.956 45.6521 721.705C91.3213 688.2 135.259 631.051 177.751 575.787C185.199 566.1 192.9 556.083 200.424 546.443C219.961 521.411 245.819 489.175 272.584 461.844C299.942 433.907 324.326 414.975 347.133 403.964C361.093 397.223 374.421 394.141 386.746 394.803C398.131 395.413 409.032 399.242 419.147 406.179C436.498 418.081 452.159 439.297 467.027 471.036C496.3 533.537 522.01 605.747 543.443 685.664C563.814 761.622 580.509 845.21 593.068 934.1L592.901 934.272C566.87 750.007 524.47 594.23 466.877 471.265C434.338 401.794 396.28 380.493 347.105 404.234C297.077 428.386 247.07 486.949 200.481 546.638C192.959 556.276 185.258 566.293 177.81 575.98C135.305 631.264 91.3532 688.43 45.6527 721.958C30.8843 732.793 16.0639 740.017 2.79521 742.846C-4.21422 744.341 -10.7377 744.597 -16.5964 743.607C-18.9344 743.221 -21.1654 742.629 -23.2858 741.84Z" fill="#FFE492"/>
<path d="M-14.2259 727.498C-23.1456 724.181 -30.144 717.609 -35.0336 707.957C-40.4859 697.195 -43.2811 682.62 -43.3439 664.64C-43.3488 663.048 -43.3326 661.409 -43.2948 659.766C-42.6257 630.275 -36.0315 597.422 -29.6526 565.649C-28.3647 559.228 -27.0309 552.586 -25.7782 546.126C-18.3206 507.661 -13.579 473.078 -11.2864 440.406C-11.0047 436.383 -10.7565 432.339 -10.552 428.386C-6.80075 356.112 -14.3977 290.673 -32.5209 239.143C-53.5602 179.407 -85.7466 142.216 -123.152 134.425C-145.029 129.904 -181.614 144.965 -209.216 182.501C-225.744 204.978 -236.705 232.69 -240.918 262.644L-241.083 262.709C-238.875 247.01 -234.858 231.948 -229.143 217.948C-223.894 205.09 -217.212 193.101 -209.28 182.313C-196.712 165.22 -181.376 151.575 -164.933 142.855C-149.735 134.795 -134.866 131.7 -123.064 134.142C-103.477 138.222 -85.3712 150.25 -69.2482 169.888C-54.6446 187.678 -42.2357 210.907 -32.3667 238.929C-14.2325 290.488 -6.63279 355.966 -10.385 428.281C-10.5905 432.237 -10.8383 436.284 -11.121 440.309C-13.4153 473.003 -18.1588 507.604 -25.6208 546.09C-26.8722 552.55 -28.2059 559.192 -29.4949 565.616C-35.868 597.369 -42.4582 630.199 -43.1265 659.649C-43.1636 661.286 -43.1798 662.924 -43.1752 664.513C-43.0491 701.678 -31.4442 721.095 -14.184 727.514C-14.0893 727.549 -13.9959 727.584 -13.9012 727.619C-14.0084 727.576 -14.1177 727.538 -14.2259 727.498ZM-10.4736 728.672C6.18617 732.942 27.3331 726.395 48.3645 712.778C93.7914 683.238 138.65 628.202 182.032 574.98C183.819 572.786 185.605 570.597 187.39 568.408C191.309 563.604 195.952 557.918 200.662 552.197C221.786 526.54 246.852 496.869 272.597 471.346C299.99 444.188 324.3 425.517 346.918 414.261C360.811 407.356 374.139 403.809 386.532 403.719C398.015 403.634 409.076 406.518 419.405 412.285C437.249 422.251 453.555 440.94 469.256 469.422C484.574 497.161 496.329 522.282 506.248 548.478C520.29 585.615 531.636 626.608 540.885 661.808C562.318 743.831 579.708 834.385 592.574 930.957L592.408 931.126C579.544 834.568 562.155 744.021 540.725 662.008C531.478 626.812 520.134 585.826 506.095 548.699C496.178 522.51 484.426 497.397 469.11 469.665C434.908 407.617 396.071 390.097 346.889 414.535C295.829 439.94 244.663 499.021 200.711 552.405C196 558.126 191.359 563.81 187.439 568.616C185.655 570.802 183.869 572.994 182.081 575.188C138.685 628.427 93.8106 683.482 48.3509 713.045C37.0944 720.332 26.102 725.358 15.6785 727.981C5.97781 730.417 -2.80029 730.647 -10.4736 728.672Z" fill="#FFE492"/>
<path d="M-4.93879 713.645C-6.0118 713.245 -7.06095 712.802 -8.08384 712.31C-16.7024 708.185 -23.428 700.905 -28.071 690.668C-33.1489 679.473 -35.7266 664.729 -35.73 646.844C-35.7285 645.251 -35.7086 643.61 -35.6681 641.968C-34.9465 612.643 -28.6958 580.133 -22.6507 548.697C-21.3908 542.145 -20.0882 535.369 -18.8675 528.777C-11.7343 490.33 -7.26534 455.937 -5.20736 423.629C-4.95397 419.634 -4.73312 415.615 -4.55494 411.684C-1.29361 339.869 -9.36823 275.056 -27.904 224.252C-49.4982 165.211 -82.1437 128.934 -119.829 122.114C-141.068 118.329 -177.053 131.979 -205.872 170.887C-222.522 193.366 -233.766 221.059 -238.389 250.97L-238.552 251.027C-236.131 235.356 -231.936 220.322 -226.089 206.343C-220.711 193.486 -213.93 181.495 -205.935 170.699C-193.323 153.673 -178.014 140.012 -161.662 131.189C-146.544 123.032 -131.656 119.711 -119.742 121.833C-99.998 125.409 -81.6909 136.948 -65.3311 156.132C-50.5224 173.498 -37.8783 196.343 -27.7498 224.037C-9.20409 274.874 -1.12565 339.723 -4.3879 411.578C-4.56708 415.512 -4.7866 419.532 -5.042 423.533C-7.10196 455.859 -11.5739 490.273 -18.7115 528.74C-19.9331 535.335 -21.2358 542.111 -22.4957 548.663C-28.5361 580.081 -34.7827 612.567 -35.5041 641.859C-35.5446 643.501 -35.5663 645.137 -35.5657 646.725C-35.5514 719.397 7.96459 727.779 51.0822 703.85C96.4847 678.393 142.615 625.174 187.226 573.709L187.684 573.18C192.006 568.191 196.475 563.034 200.906 557.949C247.653 504.305 297.419 449.817 346.711 424.554C360.541 417.484 373.872 413.473 386.329 412.632C397.916 411.849 409.134 413.785 419.673 418.388C438.047 426.41 454.998 442.575 471.496 467.805C488.857 494.258 500.86 517.102 510.415 541.879C524.009 577.234 534.332 619.361 543.439 656.529C563.587 739.639 579.956 830.911 592.092 927.803L591.926 927.969C579.791 831.087 563.423 739.825 543.278 656.722C534.172 619.561 523.852 577.441 510.261 542.096C500.711 517.328 488.711 494.491 471.356 468.047C435.595 413.358 395.981 399.621 346.686 424.82C297.425 450.066 247.68 504.531 200.951 558.156C196.52 563.241 192.05 568.4 187.729 573.387L187.271 573.915C165.04 599.562 142.052 626.081 119.313 648.949C93.7582 674.647 71.4333 692.69 51.0616 704.111C29.8036 715.908 10.0875 719.233 -4.93879 713.645Z" fill="#FFE492"/>
<path d="M591.438 924.805C580.031 827.599 564.685 735.623 545.826 651.433C545.019 647.888 544.214 644.328 543.406 640.758C535.187 604.426 526.69 566.858 514.423 535.491C502.498 505.124 487.094 483.539 473.597 466.429C436.406 419.019 396.013 409.067 346.477 435.102C295.583 461.949 243.242 518.48 201.185 563.907C198.661 566.633 196.137 569.366 193.61 572.101C191.745 574.121 189.878 576.14 188.012 578.156C164.054 604.053 142.434 627.131 120.453 647.352C95.3413 670.45 73.5285 686.095 53.7641 695.18C35.2413 703.695 18.0989 705.47 4.56681 700.441C2.10145 699.524 -0.241794 698.383 -2.45447 697.013C-10.5331 692.014 -16.8149 684.07 -21.1247 673.404C-25.8279 661.766 -28.184 646.842 -28.1301 629.045C-28.1236 627.45 -28.0985 625.809 -28.0543 624.165C-27.2792 595.014 -21.3727 562.866 -15.6603 531.778C-14.4298 525.082 -13.1573 518.155 -11.9664 511.416C-5.15863 472.978 -0.962639 438.771 0.864429 406.84C1.09151 402.867 1.28271 398.874 1.43493 394.968C4.20498 323.613 -4.34597 259.426 -23.292 209.345C-45.4411 150.999 -78.5462 115.642 -116.509 109.784C-142.497 105.878 -177.857 126.206 -202.497 159.214C-219.284 181.702 -230.82 209.387 -235.861 239.276L-236.024 239.326C-233.384 223.677 -229.01 208.659 -223.022 194.691C-217.51 181.83 -210.625 169.831 -202.559 159.023C-189.908 142.075 -174.629 128.402 -158.375 119.489C-143.342 111.244 -128.443 107.696 -116.423 109.503C-96.5205 112.572 -78.0148 123.626 -61.4182 142.353C-46.4057 159.295 -33.5246 181.761 -23.1357 209.125C-4.17746 259.235 4.3773 323.458 1.60533 394.857C1.45346 398.767 1.26126 402.762 1.03419 406.735C-0.793513 438.686 -4.99287 472.91 -11.8026 511.367C-12.9945 518.108 -14.266 525.033 -15.4975 531.731C-21.2066 562.801 -27.1087 594.928 -27.8836 624.045C-27.9268 625.686 -27.9522 627.324 -27.9591 628.915C-28.192 705.468 15.938 712.307 53.7975 694.904C98.968 674.139 146.255 623.03 187.977 577.935C189.844 575.915 191.709 573.896 193.575 571.879C196.101 569.144 198.626 566.411 201.15 563.685C225.156 537.756 248.689 512.635 272.641 490.329C300.185 464.675 324.346 446.524 346.504 434.834C360.277 427.594 373.606 423.118 386.122 421.533C397.82 420.048 409.197 421.041 419.939 424.479C438.883 430.544 456.481 444.185 473.734 466.177C487.234 483.294 502.646 504.888 514.576 535.273C526.85 566.652 535.349 604.23 543.569 640.569C544.376 644.139 545.182 647.699 545.989 651.244C564.85 735.441 580.198 827.427 591.606 924.643L591.438 924.805Z" fill="#FFE492"/>
<path d="M590.953 921.647C580.068 822.264 565.745 729.571 548.376 646.146C547.336 641.155 546.285 636.017 545.267 631.05C537.978 595.475 530.441 558.688 518.587 528.888C506.721 499.211 490.321 479.842 475.841 464.811C437.378 424.584 396.206 418.412 346.272 445.388C298.593 471.257 251.24 519.211 205.446 565.584L200.417 570.675C196.446 574.697 192.34 578.853 188.301 582.927C142.597 628.97 98.1255 671.516 56.4731 686.246C46.3656 689.821 36.7668 691.333 27.938 690.747C18.4581 690.115 10.1315 687.06 3.1892 681.663C-4.3508 675.801 -10.1902 667.206 -14.1661 656.117C-18.4932 644.05 -20.631 628.951 -20.5194 611.245C-20.5072 609.643 -20.4771 608 -20.4298 606.36C-19.6045 577.402 -14.0405 545.633 -8.6591 514.909C-7.45838 508.053 -6.21734 500.963 -5.05662 494.061C1.42133 455.627 5.34705 421.607 6.9439 390.058C7.143 386.115 7.30791 382.145 7.43246 378.26C9.71259 307.364 0.685293 243.803 -18.6736 194.445C-41.381 136.799 -74.9452 102.356 -113.188 97.4662C-139.182 94.2668 -174.503 114.842 -199.084 147.506C-216.021 170.011 -227.864 197.705 -233.335 227.596L-233.496 227.64C-230.635 212 -226.074 196.989 -219.943 183.027C-214.289 170.155 -207.293 158.14 -199.148 147.318C-186.458 130.456 -171.217 116.789 -155.071 107.791C-140.128 99.4618 -125.224 95.6972 -113.106 97.187C-93.046 99.7517 -74.3408 110.316 -57.5061 128.588C-42.2885 145.107 -29.1721 167.189 -18.5224 194.226C0.848387 243.611 9.87984 307.211 7.5988 378.148C7.47324 382.035 7.30868 386.009 7.10958 389.952C5.51311 421.517 1.58539 455.555 -4.8969 494.009C-6.05762 500.912 -7.29965 508.005 -8.50037 514.86C-13.8784 545.566 -19.4402 577.321 -20.2638 606.245C-20.3105 607.878 -20.3395 609.518 -20.3531 611.12C-20.8285 686.516 19.0414 699.222 56.513 685.97C98.1316 671.252 142.585 628.722 188.269 582.7C192.308 578.627 196.414 574.47 200.386 570.448L205.414 565.357C227.893 542.595 251.136 519.055 274.784 497.911C301.567 473.963 324.957 456.695 346.293 445.117C360.015 437.704 373.347 432.763 385.914 430.435C397.73 428.245 409.266 428.291 420.203 430.572C439.772 434.652 458.011 445.768 475.97 464.549C490.456 479.588 506.865 498.964 518.738 528.666C530.6 558.479 538.139 595.276 545.43 630.861C546.447 635.828 547.5 640.963 548.538 645.957C565.909 729.388 580.235 822.088 591.119 921.481L590.953 921.647Z" fill="#FFE492"/>
<path d="M590.466 918.485C580.274 818.299 566.97 724.891 550.924 640.858C549.718 634.543 548.509 627.994 547.34 621.661C540.896 586.754 534.232 550.659 522.747 522.287C510.837 493.025 493.486 475.994 478.082 463.195C438.542 430.018 396.591 427.629 346.062 455.674C301.911 480.3 257.87 522.091 215.278 562.506C210.797 566.759 206.162 571.155 201.657 575.409C196.367 580.405 192.334 584.197 188.585 587.698C168.508 606.435 144.931 627.84 122.28 644.513C98.2769 662.18 77.6362 672.909 59.1765 677.315C49.4698 679.632 40.3327 679.972 32.0187 678.322C23.0913 676.552 15.2878 672.511 8.82778 666.31C1.82843 659.593 -3.5671 650.348 -7.21219 638.831C-11.1649 626.343 -13.0818 611.07 -12.9125 593.442C-12.8945 591.846 -12.8607 590.201 -12.81 588.556C-11.9349 559.813 -6.71158 528.439 -1.66178 498.097C-0.49058 491.06 0.720597 483.785 1.85045 476.7C7.99852 438.257 11.6516 404.427 13.0193 373.27C13.1911 369.353 13.3277 365.409 13.4259 361.546C15.2161 291.111 5.71112 228.175 -14.0593 179.54C-37.3213 122.592 -71.3466 89.0689 -109.867 85.1416C-131.826 83.0215 -166.862 97.8467 -195.632 135.742C-212.736 158.273 -224.901 185.994 -230.807 215.906L-230.966 215.941C-227.878 200.3 -223.125 185.288 -216.839 171.32C-211.038 158.427 -203.924 146.393 -195.691 135.549C-182.967 118.789 -167.77 105.137 -151.74 96.0641C-136.889 87.6597 -121.99 83.6816 -109.783 84.8595C-89.5659 86.9199 -70.6598 96.9964 -53.5896 114.812C-38.1682 130.907 -24.8162 152.608 -13.9071 179.318C5.87523 227.98 15.3854 290.952 13.5943 361.429C13.496 365.292 13.3588 369.241 13.186 373.161C11.8173 404.334 8.16223 438.182 2.01219 476.643C0.882677 483.731 -0.3285 491.007 -1.4997 498.044C-6.54852 528.37 -11.7671 559.726 -12.6417 588.439C-12.6913 590.081 -12.7254 591.722 -12.7425 593.316C-13.3529 656.635 13.5537 687.931 59.2323 677.029C100.599 667.158 145.807 627.366 188.566 587.457C192.316 583.955 196.347 580.164 201.637 575.167C206.142 570.913 210.776 566.517 215.258 562.264C236.226 542.368 257.907 521.795 279.845 503.139C304.653 482.041 326.322 466.425 346.087 455.401C359.768 447.808 373.099 442.402 385.709 439.338C397.654 436.434 409.349 435.536 420.47 436.665C440.717 438.723 459.603 447.312 478.207 462.922C493.618 475.731 510.983 492.77 522.903 522.057C534.394 550.447 541.059 586.552 547.506 621.469C548.675 627.802 549.884 634.352 551.09 640.667C567.135 724.709 580.441 818.124 590.636 918.317L590.466 918.485Z" fill="#FFE492"/>
<path d="M589.976 915.325C580.479 814.332 568.197 720.207 553.47 635.57C552.216 628.371 550.979 620.843 549.78 613.563C544.071 578.886 538.169 543.029 526.907 515.682C514.888 486.678 496.615 472.055 480.324 461.576C440.502 435.644 396.515 437.077 345.852 465.957C305.457 489.105 264.988 525.12 225.852 559.95C217.946 566.984 209.773 574.261 201.888 581.161C197.064 585.385 192.805 589.085 188.866 592.471C170.552 608.196 146.536 628.16 123.186 643.09C99.7239 658.09 79.6688 666.365 61.8762 668.384C42.4699 670.588 26.0737 664.56 14.46 650.956C8.00331 643.391 3.04925 633.497 -0.264355 621.547C-3.8419 608.645 -5.5389 593.201 -5.31233 575.648C-5.28925 574.05 -5.25039 572.404 -5.19701 570.761C-4.27329 542.256 0.608027 511.302 5.32898 481.37C6.47095 474.129 7.65223 466.643 8.7498 459.351C14.5646 420.891 17.9471 387.245 19.0883 356.494C19.2328 352.601 19.3421 348.682 19.413 344.844C20.7133 274.868 10.733 212.556 -9.45104 164.649C-33.2686 108.402 -67.7539 75.7959 -106.553 72.8308C-132.9 70.97 -167.298 91.5101 -192.143 123.939C-209.433 146.505 -221.931 174.27 -228.286 204.23L-228.443 204.257C-225.122 188.601 -220.17 173.574 -213.726 159.595C-207.77 146.675 -200.528 134.612 -192.201 123.743C-179.447 107.096 -164.3 93.4692 -148.397 84.3365C-133.647 75.8662 -118.755 71.6765 -106.471 72.5449C-86.0958 74.101 -66.9898 83.6921 -49.6818 101.049C-34.0553 116.721 -20.4677 138.042 -9.29817 164.421C10.8967 212.358 20.8832 274.703 19.5824 344.724C19.5114 348.562 19.4012 352.483 19.257 356.38C18.1138 387.149 14.7303 420.811 8.91355 459.288C7.81598 466.581 6.63373 474.069 5.49176 481.31C0.77313 511.227 -4.10588 542.167 -5.02866 570.643C-5.08205 572.287 -5.12022 573.926 -5.1433 575.524C-5.95972 638.356 19.1185 672.963 61.9414 668.102C100.981 663.668 146.01 629.014 188.852 592.229C192.79 588.842 197.05 585.145 201.872 580.921C209.755 574.02 217.929 566.747 225.833 559.712C264.978 524.876 305.455 488.852 345.869 465.695C359.522 457.911 372.854 452.044 385.494 448.25C397.583 444.625 409.437 442.781 420.725 442.77C441.719 442.75 461.25 448.815 480.434 461.307C496.737 471.794 515.027 486.426 527.057 515.463C538.328 542.829 544.232 578.699 549.943 613.389C551.141 620.669 552.38 628.195 553.634 635.394C568.361 720.037 580.645 814.169 590.143 915.169L589.976 915.325Z" fill="#FFE492"/>
<path d="M589.492 912.165C580.697 810.359 569.435 715.522 556.02 630.285C554.788 622.452 553.59 614.199 552.433 606.217C547.399 571.515 542.195 535.631 531.07 509.081C518.901 480.23 499.723 468.059 482.566 459.959C442.228 440.605 397.44 445.931 345.645 476.244C309.269 497.648 272.679 528.252 237.294 557.845C225.127 568.023 213.634 577.635 202.125 586.912C197.443 590.69 193.199 594.07 189.153 597.243C163.05 617.689 142.379 631.804 124.1 641.659C101.167 654.025 81.6992 659.846 64.5836 659.452C57.9442 659.297 51.6961 658.128 45.9223 655.981C35.6874 652.174 26.936 645.302 20.1006 635.594C7.73045 618.024 1.7408 591.866 2.29768 557.846C2.32715 556.235 2.37005 554.59 2.42683 552.954C3.39683 524.717 7.93726 494.218 12.3294 464.72C13.4418 457.247 14.5927 449.522 15.6599 441.99C21.14 403.502 24.2486 370.044 25.1681 339.707C25.2853 335.839 25.3672 331.945 25.4109 328.131C26.2212 258.615 15.7632 196.929 -4.83238 149.745C-29.2065 94.2016 -64.1495 62.51 -103.227 60.5071C-129.922 59.2981 -163.432 79.5358 -188.595 112.068C-206.087 134.679 -218.934 162.506 -225.752 192.541L-225.909 192.562C-222.348 176.878 -217.191 161.826 -210.579 147.825C-204.458 134.865 -197.082 122.769 -188.652 111.872C-175.873 95.3511 -160.786 81.766 -145.018 72.5829C-130.371 64.0519 -115.502 59.6641 -103.147 60.2235C-82.6147 61.2753 -63.3078 70.3782 -45.7644 87.2785C-29.9338 102.53 -16.1118 123.47 -4.67952 149.517C15.9269 196.73 26.3911 258.451 25.5812 328.008C25.5366 331.824 25.4546 335.719 25.3378 339.59C24.4187 369.943 21.3081 403.419 15.8257 441.922C14.7584 449.454 13.6079 457.182 12.4942 464.655C8.10435 494.138 3.56524 524.625 2.59653 552.837C2.54075 554.47 2.4965 556.114 2.46804 557.723C1.42624 621.255 24.0946 658.23 64.6613 659.164C103.278 660.054 149.26 628.234 189.149 596.988C193.195 593.816 197.437 590.438 202.12 586.661C213.627 577.383 225.119 567.773 237.286 557.596C272.677 527.995 309.274 497.387 345.664 475.975C359.309 467.989 372.641 461.657 385.292 457.153C397.543 452.791 409.556 450.001 420.994 448.863C442.807 446.693 462.983 450.231 482.674 459.679C499.845 467.785 519.04 479.968 531.223 508.853C542.358 535.422 547.564 571.323 552.599 606.038C553.757 614.021 554.954 622.274 556.186 630.104C569.601 715.346 580.863 810.193 589.659 912.006L589.492 912.165Z" fill="#FFE492"/>
<path d="M589.011 909.007C580.809 804.935 570.853 712.035 558.576 624.998C557.403 616.694 556.343 608.264 555.218 599.339C550.825 564.448 546.28 528.373 535.238 502.48C522.816 473.544 501.766 463.692 484.815 458.343C444.358 445.283 398.768 454.504 345.441 486.533C313.398 505.884 281.049 531.402 249.764 556.081C233.322 569.052 217.794 581.3 202.364 592.667C197.782 596.045 193.554 599.103 189.441 602.017C163.959 620.041 143.488 632.18 125.016 640.225C102.595 649.989 83.7145 653.355 67.2938 650.519C58.8569 649.06 51.1096 645.863 44.2666 641.016C37.0217 635.883 30.7902 628.888 25.7449 620.229C14.5624 601.032 9.2345 574.058 9.9097 540.05C9.94424 538.438 9.99221 536.792 10.0517 535.157C11.0647 507.23 15.2664 477.218 19.3288 448.196C20.4128 440.452 21.5339 432.444 22.5711 424.639C27.7118 386.113 30.5501 352.843 31.2476 322.929C31.3361 319.085 31.3907 315.216 31.4098 311.428C31.7302 242.371 20.7958 181.311 -0.211267 134.85C-19.6478 92.0979 -45.4546 63.9653 -74.5316 53.1517C-82.7517 50.0946 -91.2267 48.4229 -99.8998 48.1922C-126.507 47.6453 -159.91 68.0399 -184.999 100.15C-202.709 122.817 -215.926 150.728 -223.22 180.863L-223.375 180.875C-219.569 165.15 -214.197 150.061 -207.41 136.03C-201.119 123.022 -193.597 110.883 -185.056 99.9517C-172.257 83.5706 -157.237 70.0396 -141.615 60.8182C-126.868 52.1124 -112.417 47.6484 -99.8254 47.91C-79.1352 48.4574 -59.6284 57.0749 -41.8471 73.5166C-25.8118 88.3413 -11.7519 108.899 -0.0601039 134.619C20.9589 181.106 31.9008 242.201 31.5808 311.298C31.5631 315.087 31.5089 318.96 31.4194 322.807C30.7209 352.736 27.8816 386.021 22.7389 424.566C21.7017 432.371 20.5819 440.379 19.497 448.125C15.4358 477.136 11.2355 507.135 10.2228 535.04C10.1643 536.673 10.1163 538.318 10.0814 539.928C8.81975 603.52 29.7056 643.722 67.3847 650.233C105.512 656.82 152.646 627.784 189.45 601.754C193.563 598.841 197.79 595.783 202.37 592.407C217.797 581.045 233.325 568.794 249.765 555.825C281.053 531.144 313.408 505.619 345.462 486.263C372.917 469.773 397.712 459.535 421.266 454.962C443.982 450.551 464.803 451.565 484.918 458.059C496.42 461.688 505.277 466.108 512.795 471.965C522.5 479.527 529.892 489.433 535.394 502.25C546.447 528.166 550.992 564.261 555.389 599.168C556.512 608.093 557.575 616.521 558.745 624.824C571.022 711.864 580.979 804.77 589.182 908.849L589.011 909.007Z" fill="#FFE492"/>
<path d="M588.52 905.844C581.039 800.934 572.075 707.34 561.12 619.708C560.036 611.038 559.084 602.167 558.075 592.776C554.297 557.59 550.392 521.202 539.396 495.873C526.772 466.976 504.792 459.77 487.055 456.718C447.006 449.569 400.614 462.685 345.23 496.812C317.901 513.741 290.221 534.452 263.452 554.483C242.291 570.316 222.304 585.273 202.598 598.408C198.142 601.381 193.81 604.198 189.724 606.777C165.107 622.302 144.24 632.766 125.929 638.771C104.003 645.961 85.7073 646.88 69.997 641.575C62.0042 638.874 54.7189 634.495 48.3501 628.556C41.674 622.329 35.966 614.352 31.3853 604.844C21.3873 584.089 16.7197 556.298 17.5145 522.24C17.5548 520.633 17.6064 518.985 17.6703 517.342C18.7238 489.775 22.5857 460.304 26.3196 431.804C27.3764 423.741 28.4691 415.4 29.476 407.271C34.2759 368.693 36.8416 335.613 37.3222 306.134C37.3834 302.315 37.4108 298.47 37.4025 294.706C37.233 226.11 25.8209 165.675 4.4023 119.937C-21.0846 65.8047 -56.9491 35.9462 -96.5813 35.862C-123.073 35.9557 -156.35 56.4825 -181.356 88.1527C-199.304 110.886 -212.907 138.9 -220.697 169.171L-220.849 169.174C-216.788 153.395 -211.194 138.256 -204.221 124.18C-197.747 111.114 -190.073 98.9235 -181.411 87.952C-168.6 71.7268 -153.655 58.2629 -138.189 49.0149C-123.561 40.2682 -109.148 35.6222 -96.506 35.5769C-75.6577 35.6234 -55.9504 43.7494 -37.9337 59.7347C-21.6953 74.1416 -7.40105 94.3179 4.55213 119.705C25.985 165.467 37.4022 225.939 37.5708 294.576C37.5804 298.34 37.5534 302.188 37.4913 306.01C37.011 335.505 34.443 368.6 29.6421 407.193C28.6365 415.323 27.5425 423.664 26.4861 431.73C22.7535 460.218 18.8928 489.676 17.84 517.225C17.7771 518.865 17.7255 520.513 17.6848 522.117C16.1706 587.042 34.7825 629.37 70.097 641.289C98.7501 650.965 136.768 639.911 189.739 606.507C193.823 603.927 198.153 601.113 202.608 598.14C222.31 585.006 242.294 570.054 263.453 554.22C290.226 534.188 317.91 513.472 345.247 496.54C373.172 479.332 398.121 467.726 421.525 461.051C445.234 454.29 466.7 452.776 487.147 456.427C504.903 459.479 526.908 466.698 539.551 495.64C550.558 520.998 554.466 557.403 558.246 592.606C559.253 601.996 560.206 610.864 561.289 619.53C572.247 707.167 581.21 800.767 588.69 905.683L588.52 905.844Z" fill="#FFE492"/>
<path d="M588.036 902.685C581.282 796.935 573.313 702.643 563.672 614.423C562.694 605.467 561.868 596.232 560.996 586.455C557.821 550.889 554.537 514.113 543.562 489.273C530.718 460.382 507.818 455.835 489.303 455.1C449.838 453.31 403.994 469.834 345.026 507.098C322.878 521.163 300.383 537.263 278.63 552.831C252.209 571.739 227.253 589.602 202.835 604.16C198.434 606.787 194.119 609.274 190.012 611.548C165.83 624.926 145.169 633.358 126.848 637.322C116.587 639.543 106.962 640.337 98.2403 639.684C88.9381 638.985 80.3469 636.616 72.7051 632.642C57.2012 624.577 45.1992 610.05 37.033 589.468C28.2138 567.239 24.207 538.634 25.1268 504.442C25.1738 502.824 25.2306 501.175 25.2941 499.542C26.3844 472.399 29.9059 443.536 33.3118 415.626C34.3422 407.176 35.4089 398.44 36.3861 389.917C40.8401 351.277 43.1343 318.384 43.4007 289.353C43.4356 285.555 43.4342 281.735 43.3989 277.999C42.7405 209.86 30.8521 150.051 9.01993 105.042C-17.0232 51.6164 -53.3465 22.6751 -93.2578 23.5466C-136.076 24.7096 -196.006 76.2495 -218.166 157.49L-218.316 157.485C-212.773 137.162 -204.823 118.067 -194.686 100.724C-185.429 84.8854 -174.535 70.7908 -162.308 58.8362C-150.939 47.72 -138.943 38.9337 -126.655 32.7197C-114.967 26.8104 -103.392 23.5377 -93.1852 23.2605C-72.1793 22.8026 -52.2721 30.4432 -34.0186 45.9726C-17.5761 59.9589 -3.04624 79.7548 9.16738 104.812C31.0105 149.851 42.9064 209.694 43.5662 277.872C43.6019 281.61 43.6032 285.431 43.5687 289.232C43.3023 318.275 41.0062 351.187 36.5512 389.842C35.5739 398.365 34.5074 407.102 33.4759 415.554C30.0717 443.455 26.5515 472.306 25.4622 499.434C25.3973 501.067 25.3392 502.715 25.2931 504.33C23.5274 570.04 40.4048 615.509 72.8129 632.369C100.251 646.636 138.593 639.742 190.032 611.283C194.138 609.009 198.451 606.524 202.852 603.898C227.264 589.343 252.216 571.483 278.633 552.576C300.389 537.005 322.885 520.904 345.037 506.837C404.03 469.556 449.894 453.027 489.381 454.816C501.822 455.309 511.454 457.569 519.693 461.933C530.226 467.511 538.082 476.378 543.712 489.044C554.701 513.911 557.986 550.71 561.162 586.296C562.036 596.07 562.86 605.304 563.838 614.257C573.48 702.483 581.449 796.779 588.202 902.535L588.036 902.685Z" fill="#FFE492"/>
<path d="M587.554 899.526C581.535 792.923 574.557 697.936 566.226 609.135C565.363 599.947 564.678 590.404 563.955 580.297C561.372 544.293 558.703 507.062 547.729 482.668C534.502 453.433 509.333 452.007 491.552 453.478C443.376 457.231 390.345 487.887 344.823 517.385C328.439 528.047 311.768 539.595 295.645 550.761C263.301 573.163 232.752 594.321 203.076 609.913C198.71 612.207 194.414 614.363 190.302 616.322C166.487 627.639 146.033 634.035 127.774 635.872C107.074 637.956 89.4591 633.865 75.4165 623.709C60.9909 613.275 49.9778 596.58 42.6859 574.087C35.0368 550.497 31.6907 521.078 32.7387 486.646C32.7911 485.03 32.8516 483.38 32.9198 481.742C34.0398 455.116 37.2217 426.955 40.298 399.719C41.3071 390.794 42.3481 381.567 43.2982 372.562C47.4614 333.309 49.425 301.538 49.4824 272.573C49.49 268.799 49.4617 265.007 49.3987 261.293C48.2466 193.614 35.8806 134.432 13.6379 90.1423C-12.9625 37.4269 -49.7448 9.39961 -89.934 11.2271C-133.27 13.4054 -192.137 64.3383 -215.636 145.808L-215.783 145.795C-209.953 125.582 -201.816 106.579 -191.601 89.3122C-182.241 73.4929 -171.311 59.3926 -159.114 47.4078C-147.74 36.2302 -135.753 27.3424 -123.484 20.9854C-111.801 14.932 -100.174 11.4604 -89.8613 10.9411C-68.6965 9.97941 -48.5908 17.1341 -30.1009 32.2043C-13.4542 45.77 1.31129 65.1855 13.7863 89.9097C36.0433 134.223 48.4155 193.44 49.5653 261.159C49.6273 264.875 49.6559 268.671 49.6497 272.445C49.5937 301.424 47.6267 333.212 43.4626 372.481C42.5125 381.486 41.4704 390.715 40.4614 399.641C37.3868 426.868 34.2066 455.02 33.0852 481.633C33.0169 483.271 32.9561 484.918 32.9037 486.533C30.8672 553.465 46.0061 602.086 75.5324 623.439C102.013 642.591 139.565 640.172 190.332 616.049C194.441 614.092 198.737 611.939 203.099 609.643C232.769 594.055 263.313 572.901 295.651 550.501C311.775 539.335 328.448 527.785 344.834 517.121C375.444 497.288 399.983 483.35 422.056 473.258C448.041 461.378 470.794 454.816 491.619 453.193C504.336 452.141 514.65 453.359 523.149 456.918C534.092 461.5 542.182 469.847 547.879 482.439C558.868 506.864 561.539 544.118 564.122 580.144C564.847 590.249 565.53 599.791 566.393 608.973C574.726 697.778 581.702 792.77 587.723 899.377L587.554 899.526Z" fill="#FFE492"/>
<path d="M587.065 896.363C581.784 788.906 575.8 693.224 568.772 603.845C568.035 594.472 567.499 584.662 566.931 574.274C564.936 537.784 562.874 500.051 551.889 476.064C538.414 446.794 512.28 448.229 493.794 451.856C448.208 460.617 399.261 491.375 344.612 527.669C334.744 534.249 324.696 541.09 314.976 547.709C277.596 573.162 238.946 599.479 203.308 615.662C198.977 617.631 194.696 619.457 190.583 621.09C167.402 630.28 146.579 634.762 128.691 634.413C108.426 634.017 91.4125 627.408 78.1167 614.773C64.7616 602.08 54.7398 583.214 48.3287 558.699C41.8412 533.89 39.1522 503.659 40.3371 468.848C40.3946 467.231 40.4602 465.58 40.5311 463.942C41.6757 437.958 44.5142 410.625 47.2589 384.192C48.2479 374.668 49.2705 364.821 50.1947 355.212C53.9998 315.866 55.7003 284.276 55.5473 255.795C55.5272 252.056 55.4713 248.285 55.3817 244.589C53.7467 177.364 40.9057 118.808 18.2477 75.2431C-8.90852 23.2381 -46.1496 -3.87187 -86.6182 -1.09202C-128.93 1.98905 -187.642 50.4242 -213.114 134.124L-213.258 134.102C-207.14 113.996 -198.818 95.0869 -188.525 77.8971C-179.061 62.0941 -168.095 47.9914 -155.93 35.9757C-133.487 13.8107 -108.199 0.195801 -86.5483 -1.37909C-65.2269 -2.84228 -44.9202 3.82417 -26.1925 18.4358C-9.34276 31.5836 5.65802 50.6154 18.3945 75.0068C41.0654 118.595 53.9129 177.189 55.5527 244.447C55.6426 248.146 55.6986 251.917 55.719 255.66C55.871 284.156 54.1706 315.759 50.3632 355.12C49.4379 364.731 48.4166 374.579 47.4277 384.103C44.6836 410.529 41.8458 437.857 40.7012 463.829C40.6288 465.465 40.5643 467.114 40.5068 468.731C38.1357 538.378 51.1847 588.786 78.2421 614.506C103.297 638.321 141.105 640.443 190.619 620.813C194.73 619.179 199.008 617.355 203.336 615.388C238.962 599.21 277.607 572.897 314.98 547.448C324.699 540.829 334.748 533.988 344.618 527.409C368.54 511.521 396.244 493.397 422.314 479.358C449.583 464.674 472.981 455.586 493.847 451.576C507.003 448.995 517.716 449.102 526.595 451.905C537.793 455.437 546.35 463.489 552.034 475.837C556.955 486.582 560.529 501.216 562.959 520.575C565.105 537.67 566.117 556.205 567.097 574.127C567.663 584.512 568.2 594.322 568.937 603.691C575.965 693.073 581.949 788.759 587.23 896.219L587.065 896.363Z" fill="#FFE492"/>
<path d="M586.582 893.204C582.046 784.885 577.055 688.507 571.325 598.56C570.717 589.037 570.336 578.993 569.931 568.362C568.522 531.347 567.066 493.071 556.054 469.466C545.746 447.458 526.115 441.169 496.04 450.24C454.041 462.783 409.514 493.328 362.37 525.671C356.5 529.699 350.431 533.862 344.407 537.962C342.046 539.573 339.682 541.189 337.32 542.802C292.459 573.458 246.071 605.158 203.547 621.417C199.248 623.063 194.983 624.56 190.873 625.865C167.951 633.131 147.343 635.517 129.623 632.956C109.78 630.086 93.363 620.964 80.8303 605.842C68.5311 590.999 59.5006 569.963 53.99 543.316C48.6487 517.487 46.617 486.448 47.9526 451.054C48.0151 449.436 48.0857 447.783 48.1604 446.144C49.3172 420.993 51.8114 394.676 54.2213 369.226C55.1982 358.919 56.207 348.26 57.1113 337.857C60.5528 298.404 61.9915 266.995 61.6336 239.014C61.5859 235.296 61.5029 231.552 61.386 227.882C59.2561 161.117 45.9384 103.184 22.8679 60.3451C-4.84392 9.05373 -42.5454 -17.1427 -83.2922 -13.4101C-125.17 -9.4369 -184.013 39.5248 -210.582 122.443L-210.725 122.415C-204.316 102.415 -195.81 83.5992 -185.441 66.4916C-175.872 50.7052 -164.869 36.5941 -152.737 24.5537C-130.328 2.31276 -104.993 -11.6264 -83.2256 -13.6921C-61.7453 -15.6591 -41.2391 -9.48131 -22.2759 4.67389C-5.22104 17.3984 10.0167 36.0503 23.0147 60.1087C46.0971 102.974 59.4247 160.94 61.553 227.738C61.6699 231.409 61.7535 235.159 61.8012 238.877C62.1582 266.874 60.7219 298.293 57.278 337.761C56.3751 348.165 55.3639 358.826 54.3884 369.133C51.9778 394.577 49.4856 420.888 48.3291 446.03C48.2545 447.669 48.1835 449.318 48.1209 450.936C45.4061 522.904 56.7634 576.376 80.9651 605.579C104.856 634.406 141.85 641.134 190.921 625.579C195.028 624.273 199.29 622.778 203.588 621.135C246.097 604.883 292.476 573.189 337.329 542.537C339.693 540.921 342.055 539.307 344.415 537.696C350.44 533.596 356.508 529.433 362.378 525.408C409.531 493.059 454.07 462.506 496.088 449.958C509.676 445.859 520.786 444.858 530.054 446.891C541.655 449.437 550.452 456.956 556.204 469.234C561.136 479.806 564.593 494.457 566.773 514.024C568.695 531.288 569.41 550.063 570.101 568.22C570.506 578.848 570.887 588.888 571.495 598.408C577.225 688.358 582.216 784.74 586.752 893.062L586.582 893.204Z" fill="#FFE492"/>
<path d="M586.09 890.043C582.599 789.38 578.487 689.53 573.868 593.27C573.379 583.519 573.15 573.152 572.906 562.18C572.115 526.485 571.218 486.029 560.21 462.862C549.703 440.812 529.445 436.153 498.277 448.615C461.248 463.351 423.165 491.103 382.845 520.484C370.219 529.684 357.161 539.201 344.192 548.243C321.538 564.07 297.214 580.688 272.84 594.997C246.735 610.323 224.144 620.842 203.773 627.162C199.493 628.49 195.246 629.658 191.149 630.63C168.483 635.998 148.101 636.271 130.57 631.44C111.163 626.088 95.3352 614.472 83.5278 596.899C61.8196 564.184 52.4058 509.126 55.5496 433.251C55.6173 431.632 55.6929 429.977 55.7703 428.34C56.9221 404.316 59.0634 379.316 61.1351 355.138C62.1097 343.758 63.1188 331.989 64.0065 320.501C67.0824 280.922 68.2556 249.696 67.6985 222.232C67.6231 218.535 67.5129 214.816 67.369 211.173C64.7552 144.865 50.9588 87.5597 27.4768 45.4439C-0.790936 -5.13705 -38.9521 -30.4134 -79.9774 -25.7312C-122.452 -20.7847 -180.087 27.6871 -208.062 110.76L-208.201 110.72C-201.501 90.822 -192.808 72.1011 -182.365 55.0745C-172.69 39.3026 -161.651 25.1858 -149.554 13.1196C-138.157 1.75132 -126.194 -7.44563 -113.997 -14.2185C-102.155 -20.7916 -90.6879 -24.762 -79.9125 -26.017C-58.2743 -28.4851 -37.5672 -22.7955 -18.3676 -9.09947C-1.11061 3.20997 14.3625 21.4782 27.6218 45.2038C51.1182 87.3439 64.9221 144.683 67.5393 211.025C67.6821 214.67 67.7941 218.393 67.8695 222.09C68.4255 249.57 67.2524 280.808 64.1766 320.4C63.2878 331.891 62.2787 343.66 61.3032 355.042C59.2325 379.218 57.0908 404.214 55.9394 428.228C55.8596 429.869 55.7863 431.521 55.7173 433.139C52.5764 508.955 61.9803 563.969 83.6681 596.651C106.107 630.043 143.291 641.696 191.203 630.346C195.298 629.374 199.544 628.208 203.82 626.883C249.365 612.756 298.141 580.16 344.197 547.982C357.166 538.941 370.222 529.426 382.848 520.226C423.176 490.838 461.267 463.08 498.314 448.338C529.531 435.856 549.827 440.529 560.358 462.63C565.289 473.005 568.621 487.635 570.549 507.348C572.248 524.732 572.667 543.701 573.075 562.043C573.319 573.016 573.548 583.379 574.037 593.124C578.657 689.387 582.768 789.237 586.258 889.903L586.09 890.043Z" fill="#FFE492"/>
<path d="M585.608 886.885C582.83 785.936 579.739 685.372 576.422 587.984C576.078 578.182 576.011 567.696 575.94 556.594C575.708 520.282 575.445 479.123 564.378 456.257C553.666 434.162 532.78 431.132 500.527 446.989C466.748 463.565 431.136 491.465 396.696 518.45C379.428 531.98 361.571 545.971 343.99 558.525C316.232 578.365 293.631 592.97 272.861 604.489C247.251 618.693 224.731 627.99 204.015 632.91C199.762 633.921 195.53 634.758 191.439 635.396C170.126 638.719 150.902 637.262 134.244 631.07C133.319 630.726 132.405 630.367 131.495 629.994C112.472 622.186 97.2464 608.042 86.2411 587.959C80.9427 578.228 76.471 566.714 72.9517 553.736C69.6432 541.538 67.0738 527.664 65.314 512.5C62.1473 485.219 61.4428 453.472 63.1611 415.45C63.2362 413.814 63.3135 412.177 63.3957 410.534C64.5133 388.139 66.2917 364.955 68.0126 342.535C69.0049 329.593 70.0326 316.209 70.9192 303.139C73.6578 262.875 74.5416 232.743 73.7795 205.443C73.6768 201.771 73.5392 198.076 73.368 194.458C70.2637 128.616 55.9909 71.9366 32.0973 30.5438C3.2741 -19.3235 -35.3471 -43.6831 -76.6509 -38.0514C-118.663 -32.2721 -176.422 16.6852 -205.528 99.0743L-205.664 99.0268C-192.107 60.6512 -171.599 26.9923 -146.357 1.6904C-134.948 -9.74607 -122.994 -19.0445 -110.823 -25.9535C-98.9806 -32.6749 -87.4622 -36.8413 -76.5861 -38.3372C-54.7902 -41.3095 -33.8832 -36.1054 -14.4471 -22.8685C3.01291 -10.9769 18.7216 6.9109 32.242 30.3003C56.1503 71.7208 70.4305 128.434 73.5377 194.316C73.7079 197.937 73.8471 201.635 73.9498 205.307C74.711 232.623 73.8282 262.764 71.0873 303.044C70.1997 316.116 69.1733 329.501 68.1796 342.442C66.4598 364.86 64.681 388.04 63.5641 410.429C63.4819 412.072 63.4032 413.709 63.3292 415.342C59.6771 496.138 67.2192 552.524 86.3865 587.722C113.001 636.291 158.238 640.303 191.501 635.115C195.589 634.476 199.817 633.641 204.068 632.63C251.715 621.311 303.875 586.944 343.993 558.27C361.57 545.721 379.426 531.73 396.693 518.202C431.14 491.213 466.759 463.304 500.555 446.721C514.987 439.625 526.894 436.4 536.955 436.865C549.361 437.437 558.638 443.885 564.524 456.03C569.481 466.269 572.706 480.966 574.386 500.958C575.865 518.573 575.989 537.837 576.107 556.47C576.178 567.568 576.245 578.051 576.59 587.847C579.907 685.235 582.997 785.8 585.777 886.748L585.608 886.885Z" fill="#FFE492"/>
<path d="M585.123 883.725L578.971 582.699C578.771 572.868 578.866 562.287 578.966 551.088C579.299 514.129 579.674 472.239 568.54 449.658C557.772 427.824 535.644 426.381 502.77 445.372C471.168 463.628 438.352 491.331 406.615 518.123C385.929 535.587 364.539 553.643 343.782 568.817C281.393 614.424 233.076 637.096 191.726 640.171C174.573 641.445 158.829 639.441 144.75 634.206C140.482 632.618 136.37 630.735 132.416 628.556C113.767 618.281 99.1428 601.616 88.9493 579.027C79.5026 558.089 73.6172 531.302 70.9627 497.135C68.8424 469.851 68.7803 438.241 70.7688 397.657C71.8175 376.239 73.3239 354.14 74.7807 332.769C78.0757 284.407 81.4836 234.398 79.8583 188.666C77.3639 118.521 62.4439 58.692 36.712 15.6447C7.33363 -33.5057 -31.7467 -56.9513 -73.3289 -50.37C-113.588 -43.9986 -171.337 1.82806 -203.001 87.393L-203.134 87.3371C-188.981 49.0915 -168.244 15.5237 -143.167 -9.73779C-120.492 -32.5787 -95.6678 -47.1095 -73.2664 -50.6535C-51.3126 -54.1269 -30.2048 -49.4109 -10.5336 -36.6338C7.13056 -25.1627 23.0739 -7.65255 36.8558 15.404C49.5883 36.7042 59.747 62.2873 67.0507 91.4448C74.4151 120.846 78.7821 153.507 80.0277 188.52C81.6547 234.269 78.2468 284.29 74.9504 332.665C73.4946 354.033 71.9893 376.129 70.9402 397.544C68.0377 456.76 67.4807 530.874 89.1028 578.793C113.9 633.748 158.635 642.345 191.797 639.881C233.126 636.811 281.421 614.146 343.785 568.556C364.534 553.389 385.923 535.332 406.606 517.873C438.348 491.077 471.173 463.367 502.791 445.102C535.722 426.078 557.895 427.531 568.69 449.423C573.674 459.534 576.794 474.308 578.224 494.596C579.482 512.454 579.307 532.031 579.136 550.962C579.036 562.161 578.942 572.736 579.142 582.563L585.293 883.589L585.123 883.725Z" fill="#FFE492"/>
<path d="M591.618 863.177C592.315 780.257 591.68 712.525 589.62 650.024C588.627 619.665 587.26 589.638 585.556 560.777C585.041 552.046 584.729 542.848 584.399 533.108C583.571 508.629 582.714 483.318 578.476 463.194C576.206 452.372 573.238 444.124 569.401 437.979C557.668 418.989 535.358 420.363 503.092 442.066C486.401 453.274 469.942 466.972 456.043 478.893C441.328 491.513 426.143 505.818 411.458 519.651C390.349 539.535 368.523 560.095 347.033 576.733C333.943 586.896 321.248 595.606 309.301 602.623C285.397 616.661 261.561 626.689 238.454 632.428C224.209 635.887 210.589 637.441 197.976 637.045C187.109 636.691 176.722 634.956 167.1 631.887C152.699 627.297 139.835 619.594 128.867 608.985C117.207 597.703 107.608 583.049 100.341 565.426C93.8607 549.712 89.0721 531.179 85.7035 508.766C79.4161 467.03 78.901 421.284 79.1552 386.091C79.3059 368.732 79.6935 351.115 80.068 334.079C81.1494 285.018 82.1699 238.678 78.0821 195.543C74.6774 160.559 67.8083 128.906 57.6628 101.459C49.8668 80.3661 39.8247 61.7521 27.8169 46.1325C24.9556 42.4151 21.9666 38.8305 18.9338 35.4857C5.87129 21.0993 -10.2738 8.89028 -29.0513 -0.803176C-47.9625 -10.6318 -65.8646 -14.8702 -83.7794 -13.753C-93.8966 -13.1514 -104.532 -10.26 -115.394 -5.16298C-153.74 12.8335 -189.01 53.8675 -209.743 104.606L-209.901 104.512C-204.374 90.986 -197.827 78.0735 -190.44 66.1276C-183.424 54.7809 -175.606 44.2292 -167.202 34.7648C-151.325 16.8875 -133.396 2.96134 -115.354 -5.5057C-104.476 -10.6121 -93.8235 -13.5068 -83.6907 -14.109C-65.7576 -15.2258 -47.841 -10.9851 -28.9146 -1.14765C-10.1263 8.54983 6.02626 20.768 19.0976 35.164C22.1334 38.513 25.1238 42.0982 27.9868 45.8194C40.0047 61.4491 50.055 80.0788 57.8568 101.19C68.0094 128.655 74.884 160.335 78.2885 195.341C82.379 238.503 81.3572 284.854 80.2772 333.93C79.9013 350.965 79.5147 368.578 79.3637 385.935C79.1091 421.111 79.6245 466.836 85.9092 508.546C89.274 530.935 94.0567 549.449 100.53 565.145C114.753 599.634 137.19 621.972 167.22 631.537C176.834 634.603 187.215 636.335 198.072 636.689C210.677 637.082 224.287 635.53 238.521 632.073C261.614 626.339 285.435 616.318 309.324 602.287C321.263 595.276 333.95 586.569 347.03 576.415C368.508 559.786 390.329 539.23 411.43 519.353C426.118 505.518 441.307 491.208 456.027 478.584C469.933 466.656 486.4 452.954 503.103 441.738C517.469 432.075 530.054 426.388 540.51 424.834C553.354 422.926 563.135 427.246 569.578 437.675C573.426 443.84 576.404 452.11 578.679 462.956C582.923 483.111 583.781 508.439 584.611 532.934C584.941 542.67 585.253 551.869 585.767 560.593C587.473 589.458 588.84 619.488 589.832 649.853C591.892 712.36 592.526 780.098 591.83 863.025L591.618 863.177Z" fill="#FFE492"/>
<path d="M598.116 842.619C601.139 759.157 601.237 688.411 598.412 626.341C597.05 596.028 594.941 566.592 592.143 538.851C591.4 531.491 590.785 523.9 590.133 515.865C588.178 491.802 586.157 466.921 580.603 448.161C577.811 438.657 574.43 431.504 570.263 426.293C554.312 406.332 525.109 422.049 503.417 438.747C488.065 450.532 472.833 464.649 457.282 479.286C443.671 492.098 430.097 506.277 415.727 521.287C394.398 543.569 372.342 566.608 350.288 584.639C337.173 595.413 324.379 604.187 312.26 610.717C289.685 622.884 267.049 630.433 243.059 633.8C229.633 635.683 216.567 635.722 204.223 633.911C193.817 632.359 183.903 629.501 174.757 625.407C161.147 619.327 148.985 610.225 138.605 598.354C127.705 585.885 118.663 570.227 111.731 551.814C105.657 535.685 101.008 516.746 97.5163 493.917C91.1577 452.506 88.8435 408.357 87.5397 374.521C87.0571 361.995 86.6691 349.429 86.2943 337.272C84.8009 288.862 83.392 243.134 76.3068 202.417C71.0119 171.986 62.5555 144.774 51.1747 121.542C42.5638 103.963 32.0146 89.2684 18.9266 76.6182C15.9051 73.7014 12.7649 70.9176 9.59487 68.344C-4.33934 57.0679 -20.5475 48.7347 -40.2865 39.0094C-54.4875 31.9223 -73.4516 23.6806 -94.2311 22.8533C-104.053 22.4074 -114.333 24.1532 -124.787 28.0358C-161.593 41.7123 -195.872 76.7679 -216.486 121.814L-216.661 121.669C-211.196 109.724 -204.774 98.403 -197.576 88.0157C-190.717 78.1191 -183.111 69.0124 -174.97 60.9401C-159.499 45.6063 -142.125 34.0828 -124.725 27.6191C-114.252 23.7281 -103.952 21.9799 -94.1136 22.4258C-73.3134 23.2513 -54.3355 31.5014 -40.125 38.5919C-20.3793 48.3198 -4.16564 56.655 9.77839 67.9379C12.9502 70.5153 16.093 73.3001 19.1186 76.2184C32.2185 88.8825 42.7781 103.59 51.399 121.189C62.7912 144.445 71.2551 171.678 76.5558 202.139C83.6455 242.887 85.0572 288.629 86.55 337.057C86.9244 349.211 87.3124 361.777 87.796 374.3C89.1011 408.124 91.4136 452.256 97.7674 493.647C101.254 516.451 105.898 535.37 111.965 551.481C125.596 587.684 146.777 612.414 174.917 624.986C184.056 629.074 193.959 631.931 204.356 633.48C216.687 635.289 229.743 635.252 243.156 633.368C267.127 630.006 289.743 622.463 312.299 610.308C324.403 603.785 337.18 595.023 350.28 584.26C372.316 566.244 394.362 543.214 415.682 520.944C430.057 505.928 443.634 491.746 457.254 478.927C472.812 464.281 488.05 450.16 503.418 438.361C517.48 427.535 529.985 420.637 540.589 417.85C553.446 414.473 563.5 417.184 570.471 425.905C574.651 431.138 578.045 438.314 580.846 447.847C586.408 466.641 588.431 491.545 590.387 515.628C591.039 523.659 591.657 531.248 592.398 538.604C595.197 566.355 597.305 595.801 598.669 626.124C601.492 688.209 601.396 758.968 598.371 842.449L598.116 842.619Z" fill="#FFE492"/>
<path d="M604.614 822.064C609.984 736.92 610.832 665.153 607.204 602.664C605.469 572.396 602.618 543.554 598.73 516.931C597.9 511.24 597.099 505.231 596.324 499.421C593.128 475.418 589.822 450.6 582.734 433.135C579.422 424.896 575.626 418.835 571.131 414.611C553.876 398.394 524.962 416.982 503.745 435.429C489.388 447.869 475.022 462.677 461.127 477L458.525 479.682C445.915 492.673 433.192 507.334 419.72 522.858C398.269 547.577 376.089 573.135 353.543 592.548C340.386 603.948 327.492 612.786 315.218 618.816C293.817 629.329 272.349 634.526 247.66 635.173C234.894 635.508 222.381 634.03 210.47 630.776C200.525 628.023 191.085 624.038 182.412 618.925C156.147 603.468 136.199 576.309 123.12 538.204C117.466 521.732 112.954 502.391 109.33 479.071C103.172 439.675 99.3305 400.108 95.9255 362.957C95.468 357.977 95.0222 353.032 94.5791 348.127C89.9795 297.243 85.6362 249.181 74.5333 209.303C67.2851 183.269 57.2418 160.502 44.6856 141.633C35.4667 127.781 24.1324 116.488 10.0377 107.11C6.85928 105.002 3.56899 103.016 0.25718 101.209C-8.08218 96.684 -17.3343 93.0123 -27.1304 89.1257C-34.9986 86.0035 -43.134 82.7756 -51.5243 78.8299C-67.6857 71.0896 -86.0032 62.3199 -104.688 59.4698C-114.328 58.0001 -124.252 58.5978 -134.185 61.2476C-169.438 70.6542 -202.729 99.7364 -223.239 139.043L-223.42 138.827C-218.013 128.463 -211.717 118.733 -204.709 109.907C-198.008 101.467 -190.615 93.799 -182.738 87.1178C-167.672 74.3405 -150.851 65.2264 -134.097 60.7556C-124.141 58.0984 -114.196 57.4989 -104.537 58.9723C-85.8341 61.8262 -67.5082 70.6023 -51.3399 78.345C-42.954 82.2859 -34.8196 85.5166 -26.9542 88.6378C-17.154 92.526 -7.8992 96.1987 0.447279 100.729C3.76079 102.54 7.05513 104.527 10.2362 106.637C24.3489 116.025 35.6964 127.332 44.9278 141.205C57.4993 160.095 67.5531 182.888 74.8096 208.951C85.9227 248.864 90.2684 296.949 94.8691 347.855C95.3122 352.761 95.7604 357.703 96.2154 362.685C99.6198 399.829 103.459 439.387 109.616 478.769C113.237 502.063 117.743 521.386 123.391 537.837C136.451 575.894 156.375 603.015 182.606 618.453C191.269 623.56 200.699 627.541 210.633 630.29C222.532 633.539 235.033 635.016 247.785 634.682C272.45 634.035 293.892 628.845 315.265 618.346C327.513 612.329 340.383 603.507 353.517 592.127C376.034 572.738 398.201 547.194 419.64 522.489C433.117 506.958 445.847 492.291 458.467 479.29L461.069 476.608C474.971 462.279 489.345 447.46 503.718 435.007C525.002 416.501 554.013 397.863 571.348 414.154C575.864 418.399 579.675 424.48 582.998 432.753C590.102 450.255 593.411 475.1 596.611 499.129C597.384 504.938 598.185 510.948 599.015 516.636C602.904 543.271 605.757 572.13 607.492 602.414C611.121 664.929 610.273 736.721 604.901 821.893L604.614 822.064Z" fill="#FFE492"/>
<path d="M611.112 801.505C618.733 715.882 620.377 641.015 615.996 578.989C613.889 548.769 610.297 520.517 605.319 495.017C604.6 491.334 603.879 487.521 603.181 483.833C598.569 459.472 593.802 434.278 584.869 418.116C581.053 411.128 576.845 406.163 572.003 402.933C553.428 390.548 524.813 411.964 504.077 432.11C491.229 444.542 478.484 458.942 466.159 472.868C464.026 475.279 461.896 477.684 459.768 480.077C448.08 493.225 436.138 508.327 423.495 524.314C402 551.494 379.775 579.596 356.798 600.462C343.304 612.714 330.671 621.368 318.173 626.922C292.032 638.537 270.183 638.309 252.258 636.557C240.135 635.369 228.175 632.376 216.713 627.651C207.235 623.699 198.269 618.585 190.065 612.453C165.732 594.293 147.04 564.736 134.508 524.602C129.293 507.907 124.921 488.16 121.141 464.235C117.306 440.114 113.951 417.03 110.706 394.704C108.502 379.53 106.419 365.198 104.31 351.407C96.3417 299.273 88.4671 253.114 72.7623 216.199C63.5624 194.578 51.9342 176.25 38.1995 161.727C28.3558 151.318 16.5827 143.654 1.15275 137.602C-2.17942 136.306 -5.62118 135.118 -9.07643 134.073C-14.3326 132.507 -19.901 131.249 -25.7954 129.92C-37.1064 127.368 -49.9289 124.475 -62.763 118.652C-67.6498 116.433 -72.5856 114.031 -77.3587 111.706C-89.636 105.726 -102.331 99.5439 -115.146 96.0844C-124.557 93.5458 -134.127 92.9974 -143.587 94.457C-177.266 99.6574 -209.569 122.77 -229.998 156.281L-230.171 155.973C-224.821 147.198 -218.653 139.062 -211.838 131.789C-205.293 124.806 -198.114 118.58 -190.504 113.285C-175.841 103.084 -159.576 96.3789 -143.465 93.8917C-133.982 92.4281 -124.391 92.9751 -114.959 95.5212C-102.13 98.983 -89.4305 105.17 -77.1465 111.152C-72.3747 113.477 -67.4389 115.879 -62.5535 118.097C-49.7315 123.916 -36.9195 126.808 -25.614 129.359C-19.7169 130.688 -14.1471 131.947 -8.8855 133.515C-5.4262 134.561 -1.98174 135.75 1.3545 137.048C16.8071 143.104 28.5961 150.784 38.4571 161.209C52.2081 175.751 63.8529 194.101 73.0637 215.751C80.1583 232.425 86.2139 252.459 91.578 276.996C96.3805 298.962 100.272 322.489 104.639 351.058C106.746 364.852 108.829 379.184 111.035 394.359C114.28 416.681 117.634 439.765 121.468 463.882C125.244 487.784 129.611 507.51 134.819 524.187C147.333 564.267 165.999 593.782 190.298 611.917C198.493 618.042 207.447 623.149 216.914 627.097C228.364 631.817 240.31 634.808 252.419 635.991C270.321 637.743 292.141 637.971 318.237 626.376C330.7 620.838 343.3 612.207 356.758 599.986C379.696 579.156 401.904 551.075 423.381 523.918C436.032 507.921 447.981 492.812 459.682 479.649C461.81 477.256 463.938 474.85 466.07 472.443C478.403 458.507 491.156 444.098 504.021 431.65C517.511 418.543 529.871 409.196 540.755 403.87C553.647 397.561 564.236 397.065 572.226 402.396C577.092 405.641 581.32 410.63 585.153 417.646C594.109 433.851 598.883 459.076 603.5 483.468C604.198 487.156 604.919 490.969 605.638 494.649C610.619 520.169 614.213 548.447 616.322 578.689C618.648 611.625 619.293 648.404 618.235 688.003C617.302 723.003 615.014 761.132 611.437 801.328L611.112 801.505Z" fill="#FFE492"/>
<path d="M617.612 780.942C627.571 693.652 629.986 617.74 624.788 555.312C622.308 525.14 617.975 497.483 611.909 473.103C611.621 471.942 611.332 470.782 611.044 469.618C604.746 444.241 598.234 417.999 587.008 403.101C582.659 397.328 578.037 393.455 572.879 391.259C552.982 382.79 524.664 406.995 504.413 428.79C492.529 441.526 480.84 455.983 469.537 469.964C466.743 473.422 463.853 476.996 461.02 480.471C450.227 493.705 439.056 509.161 427.229 525.527C405.716 555.296 383.472 586.077 360.058 608.374C346.511 621.273 333.779 629.991 321.131 635.028C296.215 644.948 275.514 642.288 256.857 637.936C245.352 635.251 233.947 630.738 222.957 624.522C213.948 619.369 205.458 613.129 197.72 605.975C175.34 585.319 157.904 553.364 145.899 510.997C141.091 494.032 136.978 474.458 132.958 449.396C125.278 401.873 119.031 368.09 112.704 339.859C100.118 283.709 87.6464 248.79 71.0028 223.101C59.8601 205.902 46.646 192.016 31.726 181.825C21.3741 174.756 9.20868 170.519 -7.72097 168.097C-11.1931 167.609 -14.7849 167.219 -18.3988 166.941C-21.8173 166.691 -25.3318 166.554 -29.0528 166.407C-42.7928 165.867 -58.3672 165.255 -73.9959 158.475C-82.2339 154.902 -90.3699 150.482 -98.2382 146.208C-107.181 141.352 -116.427 136.329 -125.603 132.701C-134.803 129.065 -144.019 127.371 -152.988 127.672C-185.07 128.742 -216.389 145.888 -236.765 173.537L-236.907 173.114C-231.614 165.931 -225.574 159.389 -218.954 153.669C-212.563 148.146 -205.602 143.363 -198.26 139.449C-183.999 131.844 -168.286 127.548 -152.825 127.033C-143.832 126.735 -134.595 128.43 -125.373 132.075C-116.189 135.706 -106.938 140.731 -97.9924 145.591C-90.1268 149.864 -81.9948 154.282 -73.7636 157.853C-58.1622 164.619 -42.6048 165.231 -28.8804 165.772C-25.157 165.917 -21.6408 166.058 -18.2199 166.305C-14.602 166.585 -11.0074 166.976 -7.53159 167.462C9.42343 169.891 21.6102 174.132 31.9833 181.219C46.9244 191.424 60.1574 205.33 71.3158 222.553C87.9824 248.276 100.467 283.232 113.064 339.43C119.394 367.672 125.643 401.465 133.324 449.001C137.343 474.043 141.451 493.597 146.253 510.544C158.242 552.851 175.652 584.761 197.999 605.386C205.727 612.53 214.208 618.761 223.203 623.909C234.181 630.116 245.571 634.624 257.061 637.307C275.69 641.651 296.355 644.311 321.213 634.414C333.814 629.397 346.503 620.707 360.002 607.853C383.365 585.604 405.587 554.856 427.076 525.119C438.911 508.743 450.09 493.274 460.898 480.021C463.73 476.548 466.62 472.974 469.415 469.517C480.727 455.524 492.423 441.057 504.328 428.299C517.544 414.075 529.831 403.506 540.847 396.882C553.752 389.123 564.607 387.028 573.108 390.642C578.295 392.849 582.941 396.743 587.311 402.543C598.573 417.493 605.096 443.77 611.401 469.185C611.69 470.349 611.979 471.512 612.267 472.669C618.339 497.078 622.677 524.769 625.161 554.973C630.361 617.456 627.946 693.427 617.98 780.778L617.612 780.942Z" fill="#FFE492"/>
<path d="M263.699 640.152C262.94 639.87 262.193 639.589 261.46 639.306C250.554 635.143 239.701 629.114 229.205 621.385C220.67 615.032 212.654 607.665 205.38 599.491C194.981 587.826 185.622 573.137 177.559 555.835C169.773 539.126 162.956 519.462 157.297 497.387C151.751 475.758 147.693 452.447 144.778 434.555C137.923 392.784 129.956 357.04 121.101 328.311C106.758 281.782 90.2838 250.543 69.2523 229.999C56.5644 217.605 41.6188 207.998 25.9877 202.185C25.7454 202.095 25.5046 202.006 25.2614 201.918C11.7989 197.019 -2.80703 197.419 -16.5837 198.582C-20.1731 198.895 -23.9165 199.303 -27.7116 199.798C-29.7948 200.08 -31.8908 200.388 -34.1084 200.714C-49.7536 203.027 -67.4859 205.644 -85.224 198.292C-96.0264 193.813 -106.366 187.317 -116.365 181.034C-122.82 176.976 -129.496 172.783 -136.054 169.31C-145.069 164.537 -153.927 161.698 -162.385 160.877C-192.841 157.912 -223.177 169.096 -243.538 190.796L-243.626 190.242C-233.183 179.113 -220.527 170.822 -206.007 165.596C-192.141 160.608 -176.985 158.73 -162.18 160.172C-153.7 160.998 -144.818 163.84 -135.783 168.626C-129.218 172.102 -122.539 176.3 -116.081 180.359C-106.089 186.639 -95.756 193.132 -84.9675 197.603C-67.2754 204.938 -49.5728 202.322 -33.9543 200.016C-31.7344 199.687 -29.6384 199.379 -27.5538 199.098C-23.756 198.603 -20.009 198.194 -16.4168 197.882C-2.61682 196.718 12.0138 196.318 25.5098 201.226C41.4312 207.018 56.6637 216.743 69.5677 229.35C80.4214 239.955 89.8931 253.145 98.5211 269.674C106.83 285.595 114.345 304.606 121.492 327.798C130.355 356.549 138.327 392.321 145.186 434.118C148.098 452 152.152 475.294 157.692 496.898C169.176 541.693 185.33 575.995 205.704 598.856C212.969 607.02 220.974 614.377 229.497 620.721C239.98 628.44 250.817 634.463 261.709 638.618C278.751 645.12 299.031 651.315 324.196 642.442C336.934 637.951 349.708 629.208 363.249 615.715C387.03 592.017 409.225 558.504 430.691 526.094C441.733 509.423 452.163 493.675 462.117 480.388C465.306 476.132 468.561 471.735 471.709 467.482C482.344 453.114 493.339 438.26 504.633 424.95C517.583 409.621 529.8 397.824 540.941 389.886C553.859 380.684 564.977 376.982 573.985 378.884C579.546 380.057 584.609 382.854 589.465 387.436C602.448 399.684 610.795 424.343 618.895 450.685C625.957 473.653 631.18 501.511 633.999 531.252C637.157 564.207 637.763 601.714 635.796 642.731C634.045 679.273 630.251 718.803 624.522 760.226L624.111 760.39C636.416 671.433 639.603 594.474 633.58 531.65C630.766 501.952 625.553 474.135 618.5 451.205C610.414 424.91 602.084 400.298 589.149 388.094C584.32 383.537 579.284 380.757 573.758 379.59C557.204 376.1 532.696 392.392 504.749 425.474C493.476 438.76 482.49 453.602 471.865 467.955C468.716 472.21 465.459 476.609 462.27 480.866C452.334 494.128 441.912 509.862 430.882 526.519C420.349 542.421 409.458 558.866 398.175 574.372C385.383 591.952 373.983 605.662 363.319 616.291C349.718 629.844 336.887 638.626 324.089 643.139C312.802 647.12 301.748 648.414 290.295 647.102C280.6 645.978 271.509 643.056 263.699 640.152Z" fill="#FFE492"/>
<path d="M284.888 649.615C277.988 647.049 271.667 643.737 266.048 640.673C255.716 635.041 245.416 627.495 235.438 618.243C227.381 610.696 219.838 602.205 213.023 593.001C194.35 567.831 179.845 532.099 168.678 483.77C163.807 462.695 160.032 440.565 156.585 419.707C149.744 378.629 140.628 343.993 129.488 316.758C113.105 276.704 93.4071 251.324 67.4973 236.887C52.7345 228.662 35.8927 223.515 18.7919 222C4.47864 220.731 -10.9138 224.791 -25.454 229.055C-29.0956 230.132 -32.9914 231.34 -37.0306 232.643C-38.0413 232.972 -39.0628 233.31 -40.0972 233.65C-57.0951 239.257 -76.3287 245.602 -95.4968 238.473C-95.8202 238.353 -96.1412 238.23 -96.4643 238.101C-109.335 233.007 -121.197 224.269 -132.67 215.816C-137.218 212.464 -141.923 209 -146.518 205.903C-155.496 199.857 -163.763 195.983 -171.796 194.064C-201.013 187.088 -229.639 192.179 -250.336 208.039L-250.341 207.344C-240.11 199.505 -227.458 194.1 -213.757 191.713C-200.28 189.366 -185.683 189.912 -171.542 193.289C-163.486 195.213 -155.198 199.095 -146.2 205.155C-141.599 208.254 -136.895 211.721 -132.344 215.07C-120.882 223.514 -109.03 232.245 -96.184 237.329C-76.7657 245.018 -57.2172 238.567 -39.973 232.877C-38.94 232.537 -37.9172 232.199 -36.9054 231.867C-32.8625 230.562 -28.9654 229.355 -25.3211 228.279C-10.7558 224.006 4.66359 219.943 19.0161 221.213C36.1433 222.732 53.0131 227.886 67.8006 236.124C80.6407 243.278 91.8165 253.05 101.967 265.996C112.421 279.331 121.561 295.73 129.907 316.139C141.059 343.411 150.188 378.089 157.037 419.208C160.482 440.059 164.254 462.175 169.122 483.229C180.274 531.493 194.757 567.173 213.4 592.303C220.205 601.49 227.737 609.971 235.784 617.508C245.747 626.748 256.032 634.285 266.349 639.906C283.711 649.367 302.707 657.975 327.172 650.448C340.046 646.485 352.906 637.689 366.488 623.553C390.682 598.374 413.812 560.358 434.219 526.816C444.487 509.94 454.186 494 463.325 480.735C466.622 475.95 469.993 470.989 473.253 466.193C483.45 451.184 493.995 435.666 504.93 421.577C517.628 405.149 529.774 392.124 541.029 382.863C553.957 372.228 565.338 366.923 574.854 367.1C580.802 367.209 586.283 368.912 591.611 372.298C606.495 381.764 616.703 404.984 625.517 428.67C633.656 450.538 639.642 477.798 642.831 507.503C646.408 540.465 646.993 578.338 644.572 620.064C642.406 657.379 637.861 697.61 631.06 739.646L630.614 739.793C645.07 650.441 649.136 570.27 642.374 507.947C639.193 478.299 633.217 451.09 625.095 429.265C616.302 405.635 606.121 382.473 591.3 373.046C586.004 369.678 580.556 367.987 574.647 367.877C557.077 367.551 532.376 386.811 505.091 422.112C494.178 436.171 483.645 451.674 473.458 466.667C470.197 471.467 466.826 476.427 463.525 481.218C454.406 494.452 444.717 510.377 434.46 527.235C414.019 560.827 390.853 598.905 366.578 624.168C352.922 638.381 339.99 647.227 327.043 651.213C315.809 654.669 304.905 655.035 293.708 652.323C290.675 651.606 287.733 650.673 284.888 649.615Z" fill="#FFE492"/>
<path d="M297.424 657.703C297.325 657.666 297.228 657.63 297.129 657.593C287.397 653.917 278.711 647.897 270.649 642.046C260.864 634.948 251.122 625.882 241.687 615.106C234.107 606.37 227.041 596.75 220.683 586.517C203.818 559.414 190.915 522.444 180.075 470.163C176.17 451.339 172.84 431.395 169.617 412.11C169.215 409.696 168.811 407.285 168.406 404.873C161.463 363.766 151.197 330.237 137.893 305.22C119.674 270.966 96.08 250.87 65.7621 243.785C49.1377 239.902 30.6654 239.316 12.3423 242.09C-2.11555 244.281 -16.717 250.991 -34.3045 259.536C-37.8735 261.279 -41.696 263.172 -46.3325 265.495L-46.5918 265.627C-55.5536 270.156 -65.7106 275.287 -76.0783 278.205C-87.9853 281.557 -98.326 281.455 -107.693 277.928C-122.294 272.412 -135.197 261.251 -147.673 250.454C-150.729 247.809 -153.892 245.073 -156.974 242.517C-165.816 235.19 -173.74 230.203 -181.199 227.274C-208.665 216.491 -236.343 215.773 -257.135 225.301L-257.039 224.483C-246.854 219.815 -234.563 217.523 -221.493 217.855C-208.399 218.186 -194.36 221.156 -180.894 226.442C-173.413 229.379 -165.469 234.377 -156.608 241.72C-153.523 244.278 -150.361 247.013 -147.303 249.658C-134.842 260.441 -121.956 271.589 -107.39 277.092C-107.325 277.116 -107.258 277.141 -107.193 277.165C-86.3189 284.928 -64.253 273.78 -46.5106 264.816L-46.2501 264.685C-41.6112 262.359 -37.7887 260.466 -34.2183 258.723C-16.6011 250.165 -1.97365 243.442 12.5291 241.245C30.8839 238.464 49.3863 239.052 66.0388 242.942C80.8746 246.41 93.7554 252.763 105.418 262.369C117.986 272.719 128.753 286.505 138.331 304.517C151.661 329.581 161.946 363.164 168.9 404.339C169.304 406.75 169.708 409.165 170.11 411.579C173.331 430.856 176.66 450.794 180.561 469.604C191.386 521.819 204.27 558.738 221.106 585.796C227.455 596.015 234.512 605.619 242.08 614.344C251.502 625.106 261.231 634.158 271 641.244C288.495 653.943 306.186 664.816 330.155 658.5C343.163 655.071 356.11 646.221 369.732 631.439C394.341 604.738 417.367 563.622 437.685 527.344C447.196 510.359 456.18 494.315 464.539 481.134C467.756 476.062 471.044 470.802 474.225 465.714C484.171 449.805 494.454 433.358 505.234 418.253C517.695 400.722 529.771 386.466 541.124 375.881C554.065 363.819 565.707 356.915 575.724 355.366C581.936 354.406 587.719 354.963 593.389 357.071C593.512 357.117 593.635 357.163 593.758 357.212C611.315 363.956 623.494 387.201 632.145 406.698C641.358 427.471 648.11 454.131 651.671 483.797C655.666 516.768 656.233 555.004 653.354 597.446C650.77 635.532 645.471 676.466 637.601 719.117L637.119 719.244C648.829 655.783 660.769 563.51 651.171 484.297C647.62 454.698 640.883 428.101 631.692 407.378C623.068 387.935 610.928 364.758 593.455 358.048C587.704 355.83 581.844 355.238 575.539 356.214C556.978 359.086 532.082 381.313 505.436 418.799C494.68 433.869 484.409 450.298 474.474 466.189C471.292 471.28 468.001 476.542 464.784 481.617C456.446 494.765 447.472 510.788 437.972 527.754C417.619 564.099 394.549 605.293 369.844 632.098C356.131 646.978 343.097 655.888 330.002 659.338C318.904 662.26 308.242 661.726 297.424 657.703Z" fill="#FFE492"/>
<path d="M306.833 665.655C304.733 664.874 302.638 663.937 300.541 662.841C291.363 658.045 283.336 650.914 275.24 643.413C265.855 634.717 256.92 624.43 247.925 611.965C240.828 602.045 234.236 591.302 228.333 580.027C213.347 551.457 201.977 513.374 191.465 456.55C188.853 442.439 186.449 427.763 184.124 413.569C182.858 405.843 181.551 397.852 180.221 390.03C173.132 348.61 161.717 316.193 146.292 293.677C125.913 263.926 99.0042 249.858 64.026 250.67C45.5461 251.099 25.4432 255.074 5.89287 262.164C-9.81251 267.86 -25.4525 278.245 -42.0114 289.24L-43.1562 290C-45.7455 291.725 -48.3658 293.477 -51.0178 295.248C-52.5459 296.271 -54.0838 297.299 -55.6352 298.335C-65.3252 304.842 -75.6723 311.54 -86.2717 315.717C-98.5779 320.564 -109.258 321.228 -118.926 317.747C-135.019 311.945 -148.6 298.185 -161.731 284.871C-163.604 282.969 -165.544 281.005 -167.435 279.122C-176.298 270.291 -183.661 264.368 -190.608 260.476C-216.244 246.113 -242.971 239.576 -263.941 242.542L-263.737 241.625C-242.712 238.651 -215.928 245.196 -190.248 259.585C-183.282 263.488 -175.9 269.427 -167.019 278.274C-165.128 280.16 -163.188 282.124 -161.314 284.026C-148.344 297.177 -134.936 310.768 -119.114 316.652C-118.943 316.716 -118.773 316.779 -118.6 316.84C-98.0588 324.239 -77.0807 311.908 -55.6055 297.492C-54.0541 296.456 -52.5162 295.428 -50.9881 294.405C-48.3351 292.631 -45.7171 290.882 -43.1255 289.155L-41.9806 288.394C-25.3938 277.381 -9.72715 266.978 6.02955 261.263C25.616 254.158 45.7533 250.177 64.2657 249.747C99.3321 248.933 126.312 263.04 146.747 292.872C162.209 315.446 173.652 347.936 180.757 389.448C182.086 397.273 183.395 405.261 184.66 412.99C186.984 427.18 189.387 441.853 191.998 455.955C202.496 512.713 213.851 550.743 228.81 579.265C234.705 590.521 241.287 601.251 248.374 611.154C257.356 623.602 266.277 633.875 275.649 642.556C289.875 655.737 307.578 672.143 333.14 666.52C346.282 663.631 359.312 654.727 372.975 639.296C398.004 611.034 420.888 566.703 441.078 527.594C449.849 510.603 458.134 494.555 465.749 481.511C468.716 476.429 471.753 471.161 474.69 466.064C484.541 448.972 494.727 431.3 505.532 414.908C517.774 396.264 529.78 380.777 541.214 368.875C554.171 355.39 566.072 346.891 576.588 343.613C583.337 341.509 589.653 341.015 595.899 342.101C604.264 343.555 612.042 348.219 619.681 356.347C626.144 363.229 632.388 372.502 638.769 384.701C649.059 404.375 656.575 430.436 660.506 460.066C664.922 493.045 665.468 531.65 662.131 574.803C659.126 613.663 653.073 655.3 644.139 698.564L643.624 698.663C662.485 607.325 668.289 522.785 659.966 460.618C656.046 431.068 648.55 405.081 638.29 385.465C624.542 359.183 610.983 345.693 595.612 343.019C589.408 341.939 583.136 342.431 576.435 344.518C551.417 352.313 524.204 387.397 505.782 415.453C495.004 431.805 484.829 449.456 474.991 466.527C472.051 471.626 469.013 476.897 466.045 481.982C458.453 494.987 450.178 511.017 441.419 527.986C421.185 567.181 398.253 611.604 373.11 639.995C359.338 655.546 346.204 664.522 332.957 667.436C323.979 669.41 315.373 668.831 306.833 665.655Z" fill="#FFE492"/>
<path d="M314.586 673.642C300.277 668.321 289.256 655.629 279.827 644.773C270.956 634.561 262.56 622.799 254.158 608.818C247.545 597.725 241.428 585.855 235.978 573.534C219.63 536.633 210.393 488.958 202.848 442.934C201.308 433.538 199.809 423.885 198.36 414.552C196.35 401.591 194.27 388.19 192.031 375.188C184.773 333.322 172.21 302.012 154.693 282.13C132.03 256.412 101.805 248.369 62.2898 257.544C41.9444 262.267 20.2124 270.804 -0.557743 282.231C-16.5765 291.042 -32.0883 303.92 -48.5101 317.552C-49.6737 318.517 -50.8407 319.488 -52.0117 320.456L-52.6478 320.985C-56.6414 324.304 -60.7703 327.733 -64.9404 331.166C-74.9491 339.439 -85.7152 347.842 -96.6163 353.266C-109.271 359.562 -120.243 360.968 -130.164 357.563C-147.579 351.589 -161.556 335.054 -175.07 319.064C-176.018 317.943 -176.961 316.827 -177.901 315.721C-186.826 305.211 -193.649 298.41 -200.022 293.668C-223.708 276.049 -249.488 263.691 -270.752 259.765L-270.441 258.777C-249.141 262.707 -223.324 275.082 -199.607 292.726C-193.215 297.481 -186.377 304.296 -177.436 314.825C-176.496 315.931 -175.553 317.047 -174.605 318.171C-161.116 334.13 -147.164 350.627 -129.819 356.585C-108.273 363.977 -85.049 346.894 -64.9717 330.301C-60.8015 326.868 -56.6727 323.438 -52.68 320.122L-52.0439 319.594C-50.8719 318.622 -49.7059 317.655 -48.5423 316.69C-32.0919 303.033 -16.5537 290.134 -0.480973 281.292C20.3273 269.844 42.0995 261.294 62.4804 256.562C81.2139 252.213 97.506 251.739 112.286 255.11C128.773 258.873 143.195 267.661 155.152 281.232C172.726 301.176 185.327 332.576 192.606 374.557C194.846 387.566 196.927 400.971 198.938 413.935C200.386 423.268 201.883 432.917 203.424 442.31C210.962 488.284 220.185 535.907 236.504 572.74C241.947 585.042 248.055 596.896 254.658 607.973C263.047 621.933 271.43 633.678 280.288 643.876C293.888 659.534 310.815 679.023 336.111 674.547C349.386 672.198 362.5 663.239 376.205 647.16C401.661 617.289 424.361 569.639 444.389 527.595C452.437 510.702 460.037 494.747 466.946 481.893C469.501 477.138 472.12 472.217 474.652 467.457C484.56 448.84 494.807 429.587 505.817 411.566C517.856 391.797 529.792 375.073 541.291 361.864C554.266 346.959 566.428 336.865 577.438 331.861C584.588 328.613 591.321 327.021 598.026 326.994C607.057 326.96 615.843 330.341 624.14 337.044C631.405 342.915 638.551 351.547 645.378 362.703C656.743 381.278 665.026 406.739 669.331 436.334C674.167 469.324 674.694 508.292 670.898 552.16C667.469 591.791 660.662 634.135 650.666 678.013L650.121 678.082C671.302 585.108 677.919 499.469 668.752 436.941C664.46 407.442 656.206 382.065 644.879 363.552C630.197 339.556 614.785 327.92 597.764 327.988C591.108 328.014 584.422 329.595 577.324 332.818C551.128 344.723 524.144 382.504 506.118 412.105C495.135 430.079 484.903 449.306 475.008 467.899C472.476 472.659 469.855 477.583 467.297 482.343C460.412 495.155 452.821 511.088 444.784 527.96C435.148 548.186 424.228 571.111 412.794 592.158C399.692 616.273 387.777 634.503 376.366 647.894C369.768 655.636 363.154 661.854 356.706 666.375C349.771 671.237 342.771 674.32 335.902 675.535C328.04 676.928 320.984 676.021 314.586 673.642Z" fill="#FFE492"/>
<path d="M321.266 681.726C316.536 679.967 311.922 677.176 307.37 673.336C298.406 665.774 290.979 655.34 284.425 646.138C276.164 634.537 268.082 620.921 260.404 605.672C254.277 593.419 248.634 580.422 243.635 567.039C229.276 528.661 221.829 481.962 214.244 429.32C213.57 424.641 212.892 419.873 212.238 415.259C209.657 397.099 206.989 378.321 203.852 360.349C196.413 317.957 182.703 287.758 163.103 270.589C138.38 248.932 103.881 246.854 60.5658 264.419C38.3391 273.433 14.9775 286.528 -6.9942 302.293C-23.5377 314.164 -39.1976 329.588 -55.7777 345.92C-57.4624 347.58 -59.1532 349.244 -60.8524 350.914C-65.0836 355.077 -69.6341 359.542 -74.2312 363.996C-83.8856 373.375 -95.3244 383.899 -106.947 390.813C-119.957 398.555 -131.225 400.705 -141.389 397.384C-159.998 391.308 -174.148 371.852 -187.832 353.038L-188.353 352.323C-195.054 343.113 -202.244 333.653 -209.422 326.863C-231.3 306.168 -255.492 288.452 -277.541 276.979L-277.133 275.948C-255.061 287.433 -230.846 305.164 -208.949 325.878C-201.752 332.688 -194.548 342.163 -187.837 351.386L-187.315 352.101C-173.66 370.873 -159.538 390.283 -141.02 396.332C-119.635 403.317 -96.325 384.498 -74.3209 363.119C-69.7248 358.667 -65.177 354.201 -60.9468 350.041C-59.2486 348.374 -57.5569 346.707 -55.8732 345.05C-39.2648 328.69 -23.5764 313.238 -6.97866 301.328C15.0352 285.531 38.441 272.411 60.7089 263.381C81.0303 255.142 99.5444 251.142 115.732 251.495C134.229 251.901 150.324 257.988 163.571 269.59C183.246 286.824 197.007 317.131 204.471 359.669C207.61 377.657 210.28 396.442 212.861 414.612C213.517 419.223 214.195 423.991 214.869 428.669C222.446 481.261 229.885 527.91 244.218 566.222C249.21 579.583 254.845 592.561 260.962 604.798C268.63 620.024 276.698 633.619 284.947 645.203C297.876 663.363 313.968 685.96 339.105 682.58C352.513 680.776 365.71 671.766 379.453 655.031C405.348 623.501 428.803 570.186 447.65 527.346C454.991 510.658 461.924 494.898 468.16 482.29C470.125 478.315 472.141 474.217 474.091 470.252C484.217 449.654 494.69 428.353 506.121 408.241C523.868 376.926 550.796 336.221 578.303 320.13C585.898 315.687 593.051 312.996 600.168 311.905C618.834 308.926 636.275 318.622 652.006 340.718C664.447 358.194 673.496 383.055 678.174 412.614C683.431 445.612 683.94 484.946 679.683 529.532C677.732 549.982 674.764 571.496 670.864 593.477C667.139 614.472 662.545 636.005 657.21 657.477L656.635 657.509C680.146 562.897 687.575 476.16 677.556 413.273C672.894 383.824 663.88 359.058 651.488 341.648C635.831 319.652 618.485 310.001 599.937 312.961C592.873 314.043 585.775 316.713 578.236 321.123C550.918 337.102 524.135 377.601 506.477 408.762C495.073 428.822 484.617 450.094 474.502 470.664C472.553 474.629 470.537 478.731 468.57 482.708C462.355 495.273 455.43 511.011 448.101 527.675C438.617 549.232 427.868 573.665 416.426 596.243C403.277 622.188 391.245 641.668 379.642 655.797C373.023 663.857 366.373 670.257 359.881 674.82C352.887 679.736 345.815 682.703 338.866 683.636C332.765 684.46 326.93 683.833 321.266 681.726Z" fill="#FFE492"/>
<path d="M327.169 689.837C321.499 687.728 316.067 683.991 310.776 678.579C302.203 669.816 295.194 657.955 289.009 647.49C281.223 634.316 273.695 619.186 266.636 602.516C260.994 589.113 255.827 574.99 251.279 560.538C238.756 520.793 232.832 473.367 226.559 423.161C226.248 420.677 225.939 418.19 225.626 415.702C222.701 392.375 219.678 368.254 215.66 345.507C208.031 302.542 193.175 273.45 171.504 259.041C144.285 240.939 106.375 245.06 58.8299 271.282C35.0479 284.398 9.38067 302.534 -13.4435 322.346C-30.6775 337.306 -46.6987 355.392 -63.6611 374.541C-65.6694 376.808 -67.6835 379.083 -69.7077 381.359C-73.7543 385.917 -78.5614 391.318 -83.5385 396.819C-92.7677 407.039 -104.944 419.86 -117.281 428.324C-130.645 437.493 -142.208 440.4 -152.631 437.204C-161.177 434.516 -169.471 428.405 -177.988 418.517C-185.301 410.029 -191.751 400.091 -198.826 388.921C-205.254 378.64 -212.094 367.947 -218.845 360.054C-238.842 336.672 -260.882 314.513 -284.348 294.186L-283.855 293.127C-260.374 313.462 -238.323 335.638 -218.314 359.03C-211.545 366.946 -204.695 377.656 -198.259 387.946C-186.402 406.672 -171.647 429.983 -152.243 436.083C-130.003 442.899 -106.154 420.821 -83.6941 395.945C-78.7203 390.449 -73.9157 385.051 -69.8713 380.495C-67.8472 378.218 -65.8331 375.944 -63.8271 373.679C-46.8367 354.499 -30.7876 336.382 -13.4976 321.374C9.37309 301.522 35.0899 283.351 58.9175 270.211C106.607 243.909 144.642 239.788 171.966 257.957C182.442 264.924 191.423 275.395 198.655 289.078C206.417 303.757 212.358 322.503 216.316 344.787C220.34 367.557 223.365 391.693 226.291 415.035C226.602 417.526 226.914 420.01 227.225 422.495C233.491 472.657 239.411 520.038 251.909 559.707C256.451 574.137 261.61 588.241 267.244 601.623C274.294 618.267 281.809 633.377 289.584 646.53C301.804 667.203 317.012 692.931 342.076 690.612C355.653 689.355 368.936 680.291 382.679 662.904C409.036 629.735 432.195 572.705 450.805 526.882C457.461 510.493 463.747 495.014 469.351 482.69C470.508 480.147 471.669 477.59 472.835 475.02C483.373 451.802 494.271 427.791 506.403 404.916C523.815 372 550.568 328.535 579.145 308.398C587.118 302.78 594.687 298.992 602.288 296.816C612.872 293.735 623.228 294.287 633.068 298.453C642.051 302.256 650.645 309.079 658.611 318.73C672.127 335.1 681.942 359.36 686.995 388.886C692.675 421.889 693.163 461.595 688.447 506.895C686.284 527.681 683.014 549.547 678.727 571.887C674.621 593.281 669.577 615.168 663.731 636.937L663.13 636.928C688.603 542.069 697.062 451.922 686.338 389.603C681.306 360.205 671.533 336.046 658.077 319.742C641.485 299.638 622.125 292.097 602.09 297.928C594.547 300.088 587.036 303.847 579.126 309.422C550.746 329.42 524.136 372.663 506.811 405.415C494.712 428.23 483.829 452.205 473.305 475.394C472.139 477.964 470.976 480.524 469.82 483.066C464.236 495.344 457.958 510.805 451.312 527.169C432.649 573.123 409.423 630.318 382.896 663.7C376.271 672.08 369.589 678.671 363.037 683.284C355.988 688.246 348.845 691.092 341.807 691.745C336.728 692.209 331.867 691.584 327.169 689.837Z" fill="#FFE492"/>
<path d="M332.536 697.989C326.076 695.586 320.009 690.889 314.194 683.824C305.967 673.83 299.398 660.555 293.603 648.846C286.279 634.048 279.306 617.398 272.876 599.365C267.719 584.829 263.028 569.577 258.93 554.041C248.837 515.791 244.28 471.836 239.455 425.299C238.666 417.691 237.849 409.826 237.018 402.082C234.092 374.872 231.349 352.312 227.476 330.667C219.652 287.097 203.652 259.114 179.917 247.491C150.092 232.886 108.771 243.199 57.1032 278.141C31.4351 295.501 4.09399 318.317 -19.8839 342.391C-37.9476 360.527 -54.4971 381.427 -72.0175 403.554C-74.1879 406.295 -76.3664 409.046 -78.5527 411.797C-82.4504 416.707 -87.5979 423.173 -92.8322 429.629C-114.887 456.872 -140.575 483.81 -163.862 477.016C-164.587 476.8 -165.305 476.558 -166.014 476.294C-183.734 469.704 -196.606 448.526 -209.287 425.509L-210.076 424.065C-216.331 412.593 -222.241 401.758 -228.254 393.235C-250.918 361.113 -273.765 332.617 -291.138 311.381L-290.568 310.3C-273.191 331.543 -250.338 360.045 -227.666 392.179C-221.635 400.724 -215.72 411.574 -209.456 423.059L-208.668 424.503C-195.523 448.363 -182.175 470.249 -163.455 475.826C-140.426 482.544 -114.945 455.81 -93.055 428.771C-87.824 422.32 -82.6813 415.859 -78.7846 410.951C-76.5973 408.197 -74.4212 405.449 -72.2508 402.708C-54.7027 380.547 -38.1269 359.613 -20.0056 341.419C4.0215 317.294 31.4175 294.432 57.1366 277.037C81.0071 260.893 103.033 249.872 122.604 244.276C145.059 237.855 164.495 238.543 180.372 246.317C204.23 257.998 220.313 286.119 228.173 329.892C232.051 351.571 234.796 374.153 237.727 401.387C238.559 409.132 239.375 417 240.165 424.608C244.985 471.099 249.538 515.011 259.613 553.184C263.703 568.703 268.387 583.929 273.537 598.444C279.957 616.454 286.919 633.078 294.233 647.853C305.713 671.05 320 699.917 345.062 698.634C358.761 697.932 372.125 688.816 385.916 670.768C412.738 635.813 435.568 574.967 453.914 526.076C459.899 510.125 465.554 495.055 470.556 483.08L470.671 482.806C481.874 455.99 493.46 428.263 506.697 401.577C518.225 378.294 529.945 357.865 541.534 340.854C554.601 321.675 567.542 306.805 580 296.654C588.335 289.861 596.323 284.973 604.418 281.713C626.322 272.816 647.351 278.005 665.23 296.726C672.426 304.259 678.706 313.954 683.9 325.537C689.123 337.189 693.137 350.518 695.832 365.151C701.935 398.163 702.405 438.235 697.226 484.255C692.573 525.62 683.25 571.313 670.268 616.392L669.641 616.339C697.428 519.857 706.721 428.585 695.136 365.926C689.732 336.586 679.201 313.037 664.68 297.837C646.902 279.223 626.009 274.056 604.258 282.893C596.225 286.129 588.302 290.978 580.031 297.715C556.771 316.67 531.572 352.753 507.159 402.062C493.956 428.678 482.387 456.368 471.199 483.145L471.085 483.419C466.1 495.35 460.453 510.397 454.476 526.326C436.073 575.367 413.173 636.396 386.164 671.596C379.514 680.3 372.796 687.073 366.2 691.729C359.086 696.75 351.874 699.479 344.758 699.846C340.521 700.06 336.455 699.446 332.536 697.989Z" fill="#FFE492"/>
<path d="M-177.485 516.06C-185.409 513.113 -192.889 506.723 -200.281 496.606C-207.626 486.553 -213.976 474.084 -219.747 462.109C-220.789 459.932 -221.819 457.762 -222.843 455.607C-227.938 444.879 -232.751 434.747 -237.662 426.421C-257.249 393.234 -276.367 362.842 -294.858 333.454L-297.921 328.584L-297.284 327.489L-294.22 332.36C-275.73 361.753 -256.608 392.147 -237.018 425.342C-232.092 433.689 -227.273 443.833 -222.173 454.575C-221.15 456.73 -220.12 458.9 -219.079 461.074C-207.232 485.656 -194.047 510.113 -174.665 515.578C-150.804 522.2 -123.518 490.212 -102.414 461.606C-97.0123 454.292 -91.7102 446.973 -87.6947 441.414C-85.4802 438.351 -83.2734 435.288 -81.0724 432.232C-62.8224 406.905 -45.5845 382.981 -26.5102 361.473C-1.33442 333.089 27.7402 305.528 55.3582 283.874C80.9811 263.784 104.772 249.229 126.071 240.617C150.501 230.737 171.599 228.742 188.778 234.685C214.698 243.432 231.945 270.459 240.032 315.006C244.506 339.724 247.159 365.65 249.165 387.752C250.255 399.779 251.253 412.064 252.219 423.944C255.636 466.001 259.17 509.486 267.317 546.674C270.955 563.289 275.166 579.642 279.832 595.277C285.618 614.591 292.026 632.73 298.883 649.188C309.6 674.913 322.936 706.927 348.048 706.665C361.869 706.521 375.315 697.353 389.155 678.639C416.458 641.828 438.913 577.043 456.954 524.988C462.289 509.594 467.329 495.052 471.763 483.485C481.757 457.409 493.547 427.168 506.994 398.254C518.376 373.75 530.024 352.083 541.614 333.857C554.724 313.241 567.927 296.779 580.855 284.927C589.422 277.073 598.067 270.917 606.549 266.627C618.665 260.476 630.586 258.208 641.982 259.891C652.655 261.466 662.703 266.461 671.847 274.735C679.559 281.715 686.298 290.982 691.874 302.284C697.486 313.656 701.791 326.825 704.668 341.424C707.991 358.238 709.75 377.289 709.894 398.047C710.032 417.715 708.723 439.106 706.006 461.624C700.923 503.752 690.824 550.172 676.803 595.857L676.151 595.757C706.26 497.65 716.385 405.255 703.933 342.261C698.24 313.383 686.647 289.825 671.286 275.924C652.292 258.738 629.865 255.944 606.429 267.844C598.014 272.099 589.438 278.208 580.939 285.999C556.579 308.33 531.874 346.247 507.511 398.702C494.098 427.537 482.33 457.726 472.352 483.761C467.934 495.287 462.902 509.806 457.575 525.181C448.674 550.861 438.585 579.97 427.214 607.508C414.019 639.463 401.662 663.007 389.438 679.488C382.765 688.511 376.012 695.471 369.368 700.173C362.192 705.252 354.907 707.865 347.715 707.939C344.086 707.978 340.702 707.349 337.537 706.172C318.584 699.123 307.427 672.337 298.2 650.19C291.335 633.706 284.915 615.541 279.122 596.199C274.449 580.543 270.233 564.165 266.59 547.526C258.426 510.263 254.888 466.731 251.468 424.635C250.502 412.758 249.504 400.477 248.414 388.456C246.413 366.381 243.764 340.492 239.297 315.821C231.255 271.512 214.109 244.643 188.336 235.937C147.967 221.974 93.7528 254.907 55.3799 284.996C27.8172 306.607 -1.1974 334.108 -26.3206 362.436C-45.3379 383.879 -62.5499 407.765 -80.7716 433.053C-82.9726 436.108 -85.1807 439.17 -87.3963 442.236C-91.4141 447.797 -96.7196 455.122 -102.126 462.444C-110.985 474.453 -124.336 491.764 -137.942 503.401C-144.55 509.053 -150.863 513.077 -156.707 515.366C-163.223 517.917 -169.409 518.412 -175.089 516.834C-175.895 516.614 -176.693 516.355 -177.485 516.06Z" fill="#FFE492"/>
<path d="M-188.961 555.819C-196.894 552.869 -204.268 546.24 -211.429 535.645C-218.844 524.678 -225.084 510.814 -230.208 498.697C-231.781 494.969 -233.334 491.203 -234.837 487.561C-239.037 477.381 -243.004 467.763 -247.072 459.602C-261.681 430.293 -276.325 401.537 -290.487 373.724C-295.172 364.525 -300.015 355.014 -304.705 345.781L-304.004 344.672C-299.314 353.905 -294.47 363.417 -289.786 372.616C-275.623 400.428 -260.978 429.188 -246.369 458.501C-242.29 466.684 -238.317 476.311 -234.113 486.505C-232.612 490.147 -231.058 493.909 -229.488 497.637C-218.857 522.76 -205.844 550.009 -185.878 555.324C-161.345 561.798 -133.39 526.184 -111.774 494.436C-106.235 486.303 -100.758 478.106 -96.6069 471.874C-94.4755 468.675 -92.3505 465.478 -90.2299 462.288C-71.1609 433.596 -53.1506 406.497 -33.0165 381.529C-6.83023 349.055 23.9236 316.802 53.5767 290.713C94.8019 254.575 153.179 213.504 197.177 223.058C225.195 229.031 243.604 254.96 251.886 300.126C255.605 320.427 258.291 343.246 260.595 374.125C261.76 389.728 262.703 405.803 263.616 421.344C265.991 461.78 268.444 503.593 275.014 540.175C278.195 557.901 281.932 575.377 286.118 592.121C291.194 612.379 297.051 632.033 303.524 650.537C313.515 678.828 325.948 714.042 351.025 714.709C364.742 715.162 378.657 705.679 392.383 686.528C420.193 647.779 443.153 576.004 459.917 523.597C464.621 508.889 469.065 494.998 472.959 483.907C481.61 459.257 493.33 426.871 507.281 394.948C531.441 339.624 556.48 298.666 581.701 273.217C590.56 264.241 599.635 256.956 608.671 251.559C621.53 243.869 634.229 240.202 646.416 240.664C657.898 241.101 668.676 245.169 678.455 252.759C686.683 259.228 693.873 268.081 699.829 279.069C705.842 290.166 710.44 303.166 713.497 317.709C717.034 334.514 718.893 353.665 719.02 374.632C719.141 394.502 717.713 416.159 714.776 439.007C709.26 481.9 698.385 529.043 683.329 575.34L682.656 575.188C715.095 475.452 726.053 381.931 712.724 318.608C706.685 289.883 694.313 266.948 677.885 254.034C657.574 238.273 633.614 237.854 608.593 252.821C599.63 258.172 590.63 265.4 581.841 274.303C556.787 299.583 531.896 340.312 507.855 395.364C493.941 427.2 482.247 459.522 473.611 484.124C469.732 495.177 465.294 509.051 460.595 523.738C451.929 550.828 442.106 581.535 430.786 610.869C417.603 645.026 405.146 670.06 392.7 687.401C385.994 696.757 379.206 703.91 372.519 708.659C365.27 713.809 357.915 716.298 350.658 716.06C339.378 715.758 329.686 708.656 321.028 694.345C313.502 681.903 307.808 665.783 302.785 651.562C296.302 633.032 290.438 613.35 285.354 593.064C281.161 576.296 277.42 558.795 274.233 541.045C267.649 504.388 265.192 462.53 262.815 422.052C261.904 406.514 260.96 390.449 259.796 374.858C257.495 344.035 254.813 321.258 251.103 301.005C242.873 256.098 224.584 230.328 196.744 224.393C152.934 214.883 94.7455 255.832 53.6441 291.86C24.0503 317.896 -6.63911 350.081 -32.7702 382.487C-52.8479 407.384 -70.8323 434.446 -89.872 463.095C-91.9937 466.287 -94.1187 469.485 -96.2501 472.683C-100.405 478.921 -105.886 487.126 -111.43 495.266C-133.237 527.297 -161.458 563.223 -186.328 556.659C-187.211 556.423 -188.091 556.143 -188.961 555.819Z" fill="#FFE492"/>
<path d="M-200.389 595.602C-222.066 587.541 -234.903 551.651 -246.281 519.833C-249.778 510.057 -253.081 500.822 -256.486 492.785L-311.491 362.98L-310.732 361.861L-255.728 491.666C-252.312 499.722 -249.006 508.969 -245.505 518.759C-233.686 551.806 -220.29 589.264 -197.095 595.075C-171.912 601.389 -143.274 562.155 -121.138 527.273C-113.899 515.864 -106.675 504.202 -99.6882 492.924C-80.5803 462.08 -60.8223 430.185 -39.5273 401.581C-22.6183 378.87 -3.39997 355.604 16.0483 334.302C37.384 310.931 58.7008 290.137 79.4028 272.499C102.228 253.053 123.75 237.949 143.37 227.609C165.07 216.173 184.384 210.62 200.78 211.104C233.623 212.076 254.806 237.016 263.736 285.234C271.159 325.302 272.874 372.074 274.532 417.306C275.976 456.678 277.47 497.388 282.71 533.662C288.763 575.557 297.327 615.329 308.167 651.867C317.3 682.654 328.665 720.972 354.007 722.734C375.408 724.222 396.223 701.717 417.638 653.927C435.853 613.277 450.803 562.58 462.816 521.847C466.909 507.965 470.777 494.852 474.158 484.311C492.794 426.196 511.215 379.351 530.471 341.103C542.486 317.238 554.945 296.616 567.5 279.809C581.524 261.034 596.091 246.452 610.794 236.469C623.515 227.831 636.144 222.82 648.335 221.572C659.939 220.385 670.899 222.617 680.911 228.207C700.601 239.198 715.309 262.554 722.325 293.97C726.076 310.764 728.034 330.018 728.146 351.194C728.252 371.264 726.705 393.19 723.546 416.366C717.596 460.025 705.945 507.894 689.853 554.796L689.159 554.592C723.425 454.713 735.52 357.643 721.511 294.93C706.636 228.331 660.056 204.287 610.752 237.765C561.913 270.929 517.464 351.622 474.868 484.457C471.497 494.965 467.636 508.061 463.548 521.926C451.509 562.748 436.527 613.553 418.228 654.387C408.261 676.628 398.195 693.738 388.309 705.245C382.749 711.713 377.103 716.589 371.527 719.733C365.593 723.08 359.563 724.566 353.602 724.152C351.166 723.982 348.809 723.476 346.531 722.629C338.233 719.543 330.955 711.931 324.433 699.569C317.086 685.642 311.7 667.485 307.372 652.897C296.518 616.306 287.941 576.482 281.879 534.526C276.625 498.174 275.132 457.418 273.686 418.004C272.03 372.829 270.317 326.115 262.913 286.149C254.041 238.258 233.006 213.485 200.388 212.521C134.409 210.57 29.9304 309.649 -39.2221 402.53C-60.4592 431.054 -80.1906 462.905 -99.2729 493.707C-106.263 504.991 -113.491 516.66 -120.738 528.08C-135.433 551.238 -147.472 567.256 -158.622 578.486C-165.581 585.493 -172.225 590.586 -178.369 593.624C-185.2 597 -191.66 597.963 -197.569 596.483C-198.521 596.24 -199.464 595.946 -200.389 595.602Z" fill="#FFE492"/>
</g>
</svg>
